<svg width="242" height="209" viewBox="0 0 242 209" fill="none" xmlns="http://www.w3.org/2000/svg">
<g id="Belarus">
<g id="Group">
<path id="BY-BR" d="M19.963 146.495L21.9094 146.499L21.9873 146.096L23.9168 146.187L23.954 145.704L24.7258 145.454L25.7244 145.991L25.6432 147.013L26.0121 147.324L26.5402 147.202L27.0107 147.476L27.0513 147.162L27.3357 147.987L27.5726 147.825V147.165L28.1819 146.766L28.4968 146.938L28.2801 147.537L28.6965 147.067L29.9997 147.757L31.3571 146.969L31.7396 147.064L31.7329 147.879L34.7591 147.814L35.8186 147.233L36.086 147.551L36.1097 146.668L35.7509 145.92L36.2756 144.544L36.4855 144.534L36.6886 143.593L36.103 143.725L36.4178 143.448L35.9235 142.937L36.8104 141.55L37.8056 141.236L37.2369 140.904L37.325 140.64L36.8341 140.495L36.9391 139.988L38.3269 139.03L38.3913 138.57L39.163 138.384L39.3086 137.907L39.8231 137.965L39.6573 139.426L40.4392 139.764L41.2855 139.389L41.7391 139.879L42.4296 139.115L42.6293 139.206L42.4905 139.649L42.8494 139.778L43.0795 139.517L44.3015 139.646L44.8161 139.051L45.2087 139.044L45.4254 139.321L45.6488 139.186L46.3664 140.505L45.9568 140.992L46.9622 142.088L47.2804 141.956L47.8694 140.454L48.2925 140.6L48.3433 141.283L48.0454 142.071L48.2858 142.352L47.9506 142.978L48.2722 143.346L47.9676 143.803L48.2079 144.226L48.5532 144.155L48.8138 143.444L49.4604 143.891L49.4062 143.586L50.1611 143.255L50.1035 143.011L50.635 143.028L50.8381 143.729L51.1461 143.597L51.6437 143.952L51.9145 143.685L51.7385 143.519L52.1075 142.7L53.448 142.132L53.7729 143.725L54.7072 144.08L55.4485 143.157L55.2793 142.71L54.4228 142.798L54.2502 141.922L55.0863 141.178L54.5786 140.681L54.301 139.785L55.6618 139.805L55.7092 140.021L57.1952 139.714L57.114 138.364L57.4762 138.202L57.7537 137.387L59.5207 136.538L60.0928 135.641L61.3453 135.367L61.1455 135.178L61.2403 134.83L61.7515 134.224L60.9831 133.507L60.9425 133.088L61.4874 132.946L61.8767 131.806H61.5585L61.6838 130.585L61.0068 130.186L60.719 129.661L61.2911 129.154L61.3453 128.288L61.8158 128.285L61.3724 127.392L61.6736 126.177L61.9343 126.079L61.5924 125.393L62.1272 125.565L62.6248 125.224L62.4149 125.017L62.5944 124.256L63.0276 124.165L62.9193 123.414L63.1563 123.116L62.9803 121.973L63.3424 122.044L63.5252 121.368L63.8807 121.459L64.0533 120.857L64.7912 120.779L65.3498 120.942L65.5427 121.334L66.4533 121.479L67.1472 121.013L68.0612 121.331L68.4539 120.657L69.4051 120.566L69.2934 121.04L69.7673 120.874L70.3427 121.178L71.0401 121.172L71.0434 121.608H71.9879L72.2688 121.777L72.1199 122.065L72.6852 122.274L73.1557 122.196L73.7346 121.412L73.7515 122.044L73.9546 122.18L74.7975 121.655L75.4575 122L78.9001 122.014L79.3368 122.819L79.6685 122.433L80.2237 122.227L80.42 122.504L80.5283 122.311L81.0632 124.118L81.5405 124.195L81.1715 126.651L80.1289 126.688L80.0883 127.459L79.4451 127.615L79.1303 128.024L79.286 128.518L78.3348 128.765L78.6056 129.705L79.567 130.06L79.8987 130.524L79.9055 131.065L80.4606 130.96L80.9075 131.342L80.9549 132.08L81.7063 132.59L83.2601 132.563L83.5546 133.869L84.2587 133.916L84.6649 135.374L84.499 135.543L83.2702 135.164L82.8674 135.76L83.0807 135.898L82.8674 136.111L83.0028 137.387L82.0347 137.285L81.7977 137.701L81.3035 137.796L81.1749 138.239L81.73 139.673L82.3529 140.343L82.5729 141.002L82.9825 141.256L81.1478 143.093L81.0259 143.634L81.2358 144.337L82.6101 145.129L82.6474 145.585L84.2824 143.214L84.5972 144.385L85.3656 143.982L86.1306 141.909L87.2274 142.971L87.0987 143.086L87.8841 143.218L88.0601 143.008L88.6491 143.931L89.3362 144.114L89.1974 143.729L89.8372 143.756L89.8778 143.515L90.2333 143.651L90.5108 145.846L91.4282 147.04L92.3456 147.135L93.141 146.803L93.6149 147.503L93.9027 147.463L95.4361 148.41L96.7766 146.57L97.3453 148.055L97.1218 149.134L97.7921 149.445L98.0764 150.662L97.0474 150.98L96.8917 151.559L97.2437 151.691L97.3182 153.274L96.6141 153.284L96.6479 154.109L96.9424 154.522L97.3994 154.491L97.4908 155.631L97.897 155.668L97.9207 157.255L97.6668 157.275L97.9613 157.529L97.958 158.509L99.6065 158.58L99.857 160.082L100.544 160.015L100.656 161.408L102.227 161.381L102.267 162.193L103.425 162.511L103.015 163.884L103.181 165.365L105.862 165.338L105.893 166.008L106.762 166.725L108.252 166.793L108.844 167.615L109.379 167.574L109.873 167.916L109.894 168.481L110.154 168.555L110.266 169.083L110.168 169.614L110.489 169.918L109.67 170.923L110.202 171.714L109.961 171.883L109.42 173.831L109.66 174.295L109.535 175.786L110.151 176.071L110.767 175.966L110.659 176.328L110.99 177.102H111.85L111.877 178.12L111.745 178.543L110.005 179.69L109.43 180.549L109.982 181.611L110.012 182.605L109.657 183.569L109.078 184.269L109.789 185.335L110.598 186.038L109.965 187.564L110.391 188.01L110.422 188.426L109.738 189.292L109.166 189.194L108.844 189.624L108.722 190.425L108.983 191.017L108.695 191.761L109.555 192.813L109.447 193.077L109.234 193.354L109.322 194.247L109.694 194.227L109.118 195.035L108.485 194.674L108.736 194.105L108.587 193.875L108.12 194.197L107.832 193.686L107.209 194.011L107.179 194.335L106.322 194.234L105.554 193.828L105.053 194.301L102.626 194.406L102.646 193.642L103.367 192.353L102.768 191.839L101.742 191.951L101.566 187.56L96.3568 187.76L95.2127 189.106L94.4138 188.606L93.4897 188.558L92.6942 187.868L91.3605 188.23L91.2082 187.845L90.3382 187.422L90.477 186.695L90.2637 186.366L89.2279 185.988L88.7743 185.49L86.8719 185.548L86.3168 185.328L86.2288 185.673L85.3825 185.961L85.0711 186.59L83.2973 186.522L83.2161 185.967L82.5797 185.805L82.0482 184.993L81.4355 185.078L81.3611 183.448L80.6637 183.938L79.154 184.039L78.7613 183.705L77.0857 183.573L76.2835 183.972L75.9788 183.749L75.4711 183.853L75.4135 183.312L75.0141 183.383L73.853 182.027L72.7698 181.841L72.6513 181.425L71.7441 181.141L69.5709 181.861L67.1912 181.462L67.1236 180.711L66.0065 180.424L65.7188 180.518L66.0471 181.557L65.5292 181.455L64.253 181.78L61.677 181.543L59.7848 180.857L59.3718 181.567L58.7219 181.232L58.4511 181.662H56.8398L56.6265 181.357L54.978 181.022L53.0722 179.724L52.27 180.041L51.3797 179.676L50.0054 180.383L48.9154 180.39L47.0231 181.712L46.4612 181.79L45.642 182.585L44.8093 182.588L44.4877 182.013L42.6192 182.582L42.4465 182.017L42.1385 181.936L40.4663 183.126H40.0872L39.4338 182.602L38.3202 182.754L37.2539 182.355L35.778 182.842L33.4322 183.187L31.1811 183.163L29.9625 184.066L30.0776 184.516L28.8928 186.39L29.4581 188.504L28.2801 189.806L24.5633 191.849L23.4158 193.672L22.0753 194.454L21.4491 195.272L19.5975 194.562L18.565 194.853L18.4973 194.176L19.33 193.222L17.211 192.647L16.3343 192.918L16.3072 192.103L16.0499 191.809L14.2592 192.492L13.4739 192.34L13.1286 192.837L11.7205 193.52L12.3365 194.775L13.1185 195.221L13.0237 195.79L12.4516 196.426L13.4434 198.272L13.176 198.536L12.086 198.333L11.7543 197.362L10.6271 197.082L10.5763 196.645L10.9317 196.199L10.6068 195.685L10.6914 195.313L10.3664 195.171L10.011 194.389L10.1667 193.672L9.97715 193.121L10.1803 192.891L9.94668 192.732L10.0584 192.106L10.3664 191.91L10.1633 191.102L10.4781 190.54L10.1836 190.344L10.3664 190.192L10.1193 189.475L9.88237 189.586L9.69958 189.312L9.76728 188.815L10.4849 188.024L10.7963 188.227L11.1619 188.122L11.4293 187.588L12.2519 187.286L12.1977 186.823L12.4076 186.816L12.499 186.451L12.0522 185.335L11.5884 185.25L11.541 184.827L11.8525 184.195L11.6561 183.387L12.2688 183.546L12.0488 183.031L12.4482 182.737L11.9337 182.301L11.8017 181.756L11.9371 181.523L12.2654 181.624L12.3027 181.208L12.6276 181.1L12.499 180.464L12.1537 180.457L12.8138 179.845L13.2505 179.882L13.132 179.324L13.7007 178.733L12.9966 177.677L13.0575 176.798L12.8375 176.162L12.5498 176.037L12.8612 175.966L12.5803 175.746L12.7969 175.13L11.9168 174.643L11.7645 174.271L12.0082 174.068L11.4564 173.632L10.4477 173.574L10.2107 173.916L10.0144 173.223L9.35769 172.813L9.3103 172.391L8.68745 172.198L8.81946 171.318L9.15797 171.372L9.02934 171.112L8.63667 171.017L8.16615 171.312L7.9292 170.885L7.11678 171.389L6.89676 170.994L6.50747 171.186L6.3653 170.25L5.87109 170.459L5.63075 169.962L4.2835 169.908L4.033 169.793L4.0567 169.384L3.13935 169.671L1.64654 169.204L1.38251 168.653L1.60254 167.205L1 166.86L2.57066 163.83L4.19549 161.672L4.41551 160.847L7.05585 157.173L8.4268 155.793L11.0841 154.237L12.455 153.696L14.2931 153.372L14.8618 153.686L18.4567 150.723L18.7986 150.703L19.9461 149.347L19.963 146.495Z" fill="#5D6A81" stroke="#282A2D" stroke-width="0.5"/>
<path id="BY-HO" d="M133.21 150.635L133.555 150.879L134.266 150.192L134.493 150.561L135.15 150.324L136.179 150.571L136.449 150.209L136.961 150.284L137.624 149.884L138.805 150.331L139.435 149.857L140.325 150.314L141.114 149.431L141.104 149.093L142.417 149.086L142.383 148.389L141.91 148.518L141.825 148.085L141.493 148.071L141.71 146.969L142.888 147.351L143.436 146.685L143.995 146.783L145.982 144.009L145.843 142.988L149.049 142.558L149.16 142.741L149.739 142.44L149.411 140.975L150.887 138.638L151.394 138.357L152.034 138.746L152.979 138.8L153.375 139.406L155.216 139.592L155.836 139.819L155.866 140.092L156.079 139.589L156.523 139.646L156.479 140.18L156.922 140.177L157.196 140.542L158.388 140.005L159.468 138.827L159.722 139.02L160.619 138.942L160.795 139.149L161.624 138.895L162.355 138.986L162.887 139.45L162.941 139.206L163.147 139.325L163.354 139.714L164.742 139.271L164.518 138.794L165.029 138.219L163.669 137.627L163.34 137.356L163.154 136.599L162.819 136.416L163.858 135.107L163.567 134.471L162.822 134.731L162.267 133.609L162.914 133.172L162.575 132.347L162.66 132.039L163.015 132.11L163.025 131.745L163.266 131.725L163.554 132.381L164.261 132.195L164.623 132.469L166.004 131.752L165.581 131.66L165.493 131.207L166.014 130.7L165.733 130.764L165.645 130.358L166.004 130.084L165.297 129.732L166.502 129.299L165.788 127.375L166.038 127.304L165.947 126.851L165.463 126.269L165.439 124.547L166.671 123.306L167.832 122.734L168.106 124.06L168.827 123.756L168.604 123.455L168.929 123.289L169.413 123.647L169.515 123.999L169.163 124.175L169.031 124.679L170.212 124.855L170.601 124.179L170.561 123.729L173.682 124.463L174.007 124.862L173.952 125.2L174.585 125.599L175.306 127.933L175.675 128.244L176.305 127.906L176.495 128.099L176.979 127.811L177.48 127.953L178.174 127.054L178.201 127.48L179.402 127.226L179.839 126.786L180.987 126.966L181.058 126.286L181.823 125.68L182.98 126.039L183.339 125.586L183.271 125.241L183.881 125.345L184.196 124.473L185.099 124.564L185.648 123.722L185.753 123.008L186.169 123.238L185.678 124.145L186.142 124.395L185.929 124.875L188.295 125.335L187.939 126.066L188.586 126.688L189.622 126.566L189.605 125.971L190.461 125.893L190.688 125.589L192.425 125.836L192.875 125.44L192.767 124.973L193.284 124.797L194.303 124.595L194.449 124.902L196.751 124.713L196.876 124.95L196.571 125.613L195.867 126.282L196.26 126.898L196.744 126.553L197.113 126.942L197.414 126.763L197.621 127.026L197.404 127.808L198.057 128.217L198.095 129.198L198.931 129.032L199.137 129.715L199.598 129.844L199.648 130.517L199.103 131.041L199.472 131.718L201.656 131.522L202.082 132.702L202.268 132.459L202.641 132.648L202.779 132.445L202.786 132.739L204.712 132.78L205.058 133.544H205.565L204.885 133.747L204.756 135.797L204.171 136L203.132 135.763L202.6 136.318L204.269 137.404L204.58 137.86L205.416 138.154L205.626 139.037L205.975 139.426L205.884 140.546L208.622 143.299L209.99 143.377L210.013 144.111L209.553 144.52L209.844 145.041L210.596 145.514L210.667 145.927L211.225 146.089L211.283 147.446L211.557 148.136L210.91 148.745L210.585 149.597L208.964 150.172L210.524 152.063L210.744 152.597L210.636 154.15L211.025 154.258L212.335 155.516L213.361 155.631L212.44 156.456L212.136 155.973L211.851 156.088L211.818 156.585L211.425 156.801L211.391 157.501L210.511 157.397L210.89 158.269L211.611 157.934L212.132 158.506L211.665 159.534L211.059 159.812L211.716 160.008L211.76 160.464L211.452 160.634L211.611 161.205L211.367 161.516L212.055 161.455L212.295 162.26L212.163 165.031L211.113 165.122V165.352L212.17 166.678L212.295 166.411L212.847 167.172L213.656 167.219L214.316 167.696L213.96 168.075L214.268 168.849L214.255 169.715L213.727 170.564L214.211 170.892L214.847 170.676L216.056 170.899L216.154 173.02L216.492 173.564L214.58 174.569L214.383 174.105L213.337 173.794L211.665 173.811L209.522 173.348L208.575 173.7L208.094 173.534L207.854 172.746L206.628 172.709L205.955 173.06L206.154 173.541L204.628 174.187L204.326 174.927L204.502 175.151L203.947 176.314L202.878 176.73L202.18 176.385L201.818 175.939L201.852 175.533L200.539 175.225L200.082 174.308L198.975 174.795L198.186 174.775L196.196 175.299L195.569 175.076L195.593 174.768L195.282 174.826L195.326 175.418L194.855 175.485L195.224 176.419L194.977 176.399L194.835 175.986L194.622 176.081L194.997 176.632L194.605 176.852L194.906 177.143L194.594 177.099L194.774 177.488L194.371 177.566L194.537 177.823L194.368 178.103L194.801 178.269L194.811 178.675L194.425 178.773L194.056 178.269L193.823 178.621L194.256 178.986L193.64 179.125L193.738 179.7L193.318 179.808L193.088 179.612L192.486 180.004L192.475 180.292L192.848 180.305L192.614 180.593L192.086 180.261L191.761 180.545L192.134 181.651L191.595 182.561L190.207 182.416L189.984 183.167L189.195 183.84L188.918 185.071L187.828 185.551L188.271 186.705L187.855 187.161L187.936 187.5L187.31 187.486L186.856 187.767L186.941 188.064L187.554 187.892L187.743 188.085L187.232 189.055L187.113 189.935L185.617 190.253L185.929 191.386L185.78 192.025L185.265 191.968L184.757 191.477L184.429 191.717L184.883 192.228L184.287 192.962L184.223 193.419L184.893 193.598L184.856 193.869L185.418 194.244L185.181 194.474L184.5 194.305L184.25 194.606L184.717 195.13L185.363 195.32L184.741 195.627L184.73 195.966L185.194 196.835L185.763 196.446L186.054 196.622L185.722 198.063L186.081 198.404L186.257 199.392L187.053 199.845L187.022 200.102L186.023 200.474L186.139 201.36L186.355 201.594L186.958 201.435L186.992 201.861L187.851 203.255L187.418 204.053L187.757 204.915L187.076 205.199L186.335 205.927L186.799 206.194L186.575 206.468L187.076 206.282L186.704 207.209L186.335 207.188L185.025 207.983L184.172 207.236L182.811 207.523L183.055 206.214L181.579 206.106L179.636 204.11L180.398 203.414L179.998 201.746L180.259 201.584L179.832 201.486L178.725 200.014L177.652 199.128L176.545 198.753L175.824 198.076L175.537 198.972L174.66 198.245L174.494 198.326L174.663 198.908L174.453 199.023L171.888 198.367L171.769 198.949L171.248 199.28L170.906 199.169L170.635 199.696L169.684 198.956L168.878 199.165L168.587 199.446L168.753 199.669L168.445 200.725L167.558 200.258L166.878 200.549L166.607 200.153L166.323 200.244L166.319 200.863L165.111 200.227L164.671 198.976L165.131 198.773L165.087 197.941L164.904 197.352L164.383 197.359L164.207 197.694L163.31 198.107L163.229 198.431L162.907 198.323L162.548 198.584L162.301 198.36L162.027 198.817L161.682 198.888L161.665 199.544L161.059 200.031L159.972 199.331L159.417 200.66L159.485 201.587L159.024 202.585L156.773 202.05L156.056 202.419L155.341 203.217L154.556 203.4L154.597 202.402L154.096 200.346L153.192 200.055V199.52L152.671 198.688L152.996 197.335L152.816 195.864L151.77 195.61L151.631 194.65L150.904 194.055L151.08 193.628L150.568 193.409L150.887 192.641L150.643 192.404L149.181 192.472L147.214 194.985L146.469 195.563L145.884 195.614L145.708 194.941L144.208 194.988L142.851 195.962L142.113 196.111L140.562 199.033L140.931 199.524L141.067 200.43L140.867 200.515L140.782 201.421L140.339 201.888L139.953 201.076L139.96 199.852L139.073 200.799L138.612 200.603L137.59 196.378L137.881 196.077L137.404 196.267L137.323 196.091L138.007 195.763L135.461 195.692L135.458 195.282L134.693 195.181L134.506 194.87L133.318 194.775L131.385 196.459L130.407 196.933L130.187 195.539L128.627 193.574L128.004 193.662L128.258 191.464L128.014 191.213L125.888 192.654L125.787 193.53L125.401 194.183L124.757 194.288L124.165 195.33L123.722 195.522L123.299 195.35L122.496 195.884L120.076 196.192L120.959 194.738L120.462 194.761L120.15 195.296L119.612 195.431L119.646 194.335L119.365 193.845L117.974 193.297L117.29 193.639L117.073 193.869L117.547 194.22L117.226 195.661L117.784 196.838L117.419 197.139L116.552 197.268L115.455 199.568L114.995 199.449L113.147 197.88L113.468 197.741L113.529 196.957L114.548 195.976L114.775 195.012L114.64 194.4L113.861 194.372L113.587 194.082L112.713 193.916L112.097 194.352L110.324 193.101L110.009 193.652L109.494 193.107L109.606 192.844L108.746 191.792L109.034 191.048L108.773 190.452L108.892 189.651L109.213 189.221L109.785 189.323L110.469 188.453L110.442 188.037L110.016 187.591L110.649 186.065L109.84 185.365L109.129 184.296L109.708 183.6L110.066 182.636L110.033 181.641L109.484 180.579L110.06 179.717L111.8 178.574L111.932 178.147L111.904 177.133H111.045L110.713 176.358L110.825 175.993L110.209 176.098L109.592 175.814L109.718 174.322L109.477 173.859L110.019 171.91L110.259 171.741L109.731 170.95L110.55 169.945L110.229 169.641L110.33 169.113L110.219 168.585L109.958 168.511L109.938 167.946L109.447 167.605L108.909 167.645L108.32 166.823L106.83 166.756L105.957 166.039L105.926 165.369L103.249 165.399L103.083 163.914L103.493 162.545L103.503 162.301L104.237 161.939L104.528 161.401L105.622 160.505L105.849 160.075L105.222 158.53L105.767 158.465L105.778 158.134L106.042 158.117L106.559 156.828L108.113 157.136L108.198 156.754L109.586 156.974L110.097 156.771L110.165 156.28L110.808 156.886L111.424 156.243L111.559 156.598L111.999 156.379L111.965 156.997L112.46 157.018L112.04 158.905L112.713 158.925L114.677 160.14L114.805 160.918L116.82 160.715L119.098 161.337L119.802 160.924H120.496L120.523 159.808L121.098 159.477L120.807 157.914L121.423 157.579L124.636 157.163L124.937 158.675L126.501 158.381L126.65 159.145L130.194 158.58L132.472 156.314L132.509 152.107L133.21 150.635ZM209.908 159.101L209.847 158.668L210.751 158.712L211.015 158.952L210.839 159.565L210.541 159.064L209.908 159.101Z" fill="#5D6A81" stroke="#282A2D" stroke-width="0.5"/>
<path id="BY-HR" d="M76.6153 52.8176L77.1976 52.9292L77.6681 53.3453L78.1115 54.475L77.993 54.9079L78.6193 55.2766L78.5313 55.5979L80.6672 57.5631L80.234 57.8303L80.217 58.5406L79.8514 58.8382L80.1832 60.0931L80.0207 60.499L80.5048 60.1979L80.9076 60.3704L81.3442 60.039L82.177 59.9409L82.6983 60.4009L84.1471 62.8294L85.2675 63.2962L85.4334 63.9692L85.1287 65.1835L85.8057 66.4587L85.9513 67.514L86.3947 67.7642L86.5674 68.204L87.0311 67.7744L87.478 67.8725L87.5998 68.1532L88.5273 67.9266L88.1719 68.5557L88.1956 69.9898L89.0249 70.3078L88.92 70.7407L88.1245 70.7238L88.1482 72.1241L86.9059 71.6167L87.2613 72.0159L86.9939 72.3169L86.9634 72.9189L87.3696 73.0948L87.2309 73.5582L87.6743 73.4906L87.5964 74.3328L87.9282 74.759L87.3899 75.9563L87.5253 76.1829L87.0954 76.3892L87.7454 76.7545L86.5403 78.3172L85.6602 78.28L85.3352 79.041L84.9392 79.0715L85.1084 79.846L84.7124 79.8426L83.8018 81.9329L83.8966 82.7278L83.338 82.8123L83.0774 83.1235L82.7761 82.9307L82.6475 83.252L82.2819 83.2791L81.8215 84.3885L81.5981 84.3445L81.043 85.2476L81.1852 85.64L80.7079 85.7178L80.8399 85.9647L80.2915 86.6682L79.7837 86.5092L79.3572 86.7426L78.3316 86.2319L78.0709 86.4416L77.9761 85.9816L77.465 85.5216L77.0249 85.9241L76.5916 85.5859L75.4272 86.6615L74.52 87.1485L74.1206 87.7945L73.3623 87.8453L73.0035 87.4969L73.1423 87.0673L72.9189 86.9523L72.6413 87.2297L72.516 88.0245L71.5953 89.249L71.7273 89.7157L73.8667 90.9029L74.019 90.4734L73.3386 89.8544L73.6839 89.5263L74.1409 89.709L74.7468 89.3132L75.2478 89.3234L75.2545 89.7326L74.7773 89.9626L74.6283 91.0923L75.0447 91.5117L74.8483 91.7451L75.2376 92.5129L75.1259 93.1048L75.6303 93.6595L75.7183 94.3259L76.5646 94.6404L77.4582 93.9944L77.7121 94.106L78.2537 93.575L79.5231 93.2097L79.7093 95.1985L79.171 96.6495L80.2915 96.3925L81.4627 95.459L82.4072 97.6406L81.6828 98.564L80.9956 98.8176L80.41 98.7162L81.0734 99.9203L79.6686 100.421L78.9104 101.216L78.5617 100.786L78.2368 101.28L77.2991 101.344L77.949 102.853L77.2145 102.944L77.4345 103.465L77.1671 103.556L77.5835 103.969L78.0777 103.668L78.4906 104.162L77.9795 104.585L78.4196 105.234L78.1014 105.552L79.2252 107.456L79.3098 108.035L80.7959 108.464L80.5251 109.631L81.1445 109.628L81.5846 110.02L81.5406 110.524L82.5696 111.427L82.8506 112.377L83.8119 113.247L83.6427 113.453L85.1457 114.194L85.1118 115.33L83.9338 116.213L84.3705 116.548L84.5837 116.091L84.8444 116.088L85.0136 116.585L85.3826 116.474L85.4808 119.342L86.0765 120.735L84.6616 121.016L84.4179 121.347L83.074 121.172L82.2277 121.655L81.9366 121.419L81.2562 122.23L80.806 122.102L80.5386 122.318L80.4303 122.511L80.234 122.237L79.6788 122.443L79.3471 122.832L78.9104 122.027L75.4678 122.014L74.8077 121.669L73.9648 122.196L73.7617 122.058L73.7482 121.429L73.1693 122.213L72.6988 122.288L72.1335 122.078L72.2825 121.791L72.0015 121.625H71.0571L71.0537 121.185L70.3564 121.192L69.7809 120.887L69.307 121.053L69.4187 120.576L68.4675 120.668L68.0749 121.341L67.1643 121.023L66.4703 121.49L65.5598 121.344L65.3668 120.952L64.8083 120.789L64.0703 120.867L63.8977 121.469L63.5423 121.378L63.3595 122.054L62.9973 121.983L63.1733 123.127L62.9397 123.424L63.0447 124.175L62.6114 124.266L62.432 125.031L62.6419 125.234L62.1442 125.575L61.6094 125.403L61.9513 126.09L61.6906 126.184L61.3894 127.402L61.8328 128.291L61.3589 128.295L61.3081 129.161L60.7361 129.668L61.0238 130.192L61.7008 130.591L61.5756 131.812H61.8938L61.5079 132.956L60.9629 133.098L61.0001 133.517L61.7685 134.234L61.2574 134.84L61.1592 135.188L61.3623 135.377L60.1098 135.651L59.5344 136.548L57.7708 137.397L57.4932 138.212L57.131 138.374L57.2122 139.727L55.7262 140.032L55.6822 139.815L54.3214 139.795L54.599 140.691L55.1067 141.188L54.2706 141.932L54.4433 142.809L55.2997 142.721L55.4689 143.167L54.7276 144.09L53.7933 143.735L53.4684 142.142L52.1279 142.71L51.7589 143.529L51.9349 143.695L51.6641 143.962L51.1665 143.607L50.8585 143.739L50.6554 143.039L50.1273 143.022L50.1849 143.265L49.43 143.597L49.4842 143.901L48.8376 143.455L48.577 144.165L48.2283 144.236L47.988 143.816L48.2926 143.36L47.9744 142.991L48.3062 142.365L48.0658 142.085L48.3671 141.297L48.3163 140.613L47.8932 140.468L47.3042 141.966L46.986 142.098L45.9806 141.006L46.3902 140.519L45.6726 139.2L45.4492 139.335L45.2359 139.057L44.8433 139.061L44.3287 139.656L43.1033 139.528L42.8765 139.788L42.5177 139.66L42.6565 139.216L42.4534 139.125L41.7629 139.89L41.3093 139.399L40.463 139.775L39.6844 139.436L39.8503 137.975L39.3358 137.918L39.1868 138.395L38.4184 138.581L38.3541 139.041L36.9663 140.001L36.8613 140.509L37.3521 140.654L37.2641 140.918L37.8328 141.249L36.8376 141.564L35.9507 142.951L36.445 143.461L36.1301 143.739L36.7158 143.607L36.5127 144.547L36.3062 144.554L35.7781 145.93L36.1369 146.681L36.1132 147.561L35.8458 147.243L34.7863 147.825L31.76 147.889L31.7668 147.074L31.3877 146.979L30.0303 147.764L28.727 147.077L28.3107 147.547L28.5273 146.949L28.2125 146.776L27.6066 147.175L27.6032 147.835L27.3663 147.997L27.0853 147.175L27.0447 147.49L26.5708 147.219L26.0427 147.337L25.6771 147.03L25.7584 146.008L24.7598 145.467L23.988 145.717L23.9507 146.201L22.0213 146.11L21.9434 146.512L19.997 146.509V145.24L19.6416 144.523L19.4317 140.089L20.1764 139.223L19.7939 138.503L19.6517 136.507L18.9679 135.486L19.0424 135.093L18.6498 134.975L18.3248 134.184L19.4588 131.018L19.0932 130.274L18.1352 129.462L17.9186 127.936L16.9843 127.395L13.034 115.855L11.1756 108.173L11.0876 106.519L10.2548 105.406L10.3395 101.973L9.63198 101.483L9.32056 99.4129L9.41195 97.512H9.73353L9.92987 98.0092L11.0503 98.0532L11.7679 98.7568L12.7327 98.3881L14.1239 98.4185L14.3135 98.1987L15.7251 98.8684L16.1076 99.396L15.9383 99.8492L16.3141 99.9L17.0046 99.4434L16.5307 98.6857L16.5883 98.3712L17.7121 97.529L18.5787 98.0837L18.9713 97.9889L19.4554 96.9573L20.6571 97.6609L20.8196 98.6857L21.3138 98.7466L24.0692 98.2054L24.4009 97.4478L25.105 97.5797L25.4605 97.1941L26.5945 96.9032L26.9127 97.4173L26.8246 97.759L27.3629 97.972L27.8706 97.6372L28.0399 98.131L29.3973 99.6362L29.8204 99.7478L30.2097 99.2878L30.4771 99.7613L32.0478 99.5212L31.9632 99.7207L32.2035 99.856L32.1595 99.4873L32.3761 99.4975L32.3897 99.7613L32.9414 99.4873L33.395 98.5978L34.529 97.3294L35.8018 96.2267L36.5702 95.946L37.0847 95.1917L37.7719 95.371L38.4861 94.796L39.0751 94.9482L38.7671 97.1907L39.9925 97.0453L39.9248 96.7206L40.7846 95.9156L41.4074 95.6923L41.9287 95.8445L42.2063 95.6754L42.23 95.256L42.5753 95.3237L42.4737 94.4476L43.2387 94.4645L43.3606 94.1534L43.1643 93.991L42.6261 94.1872L42.1149 93.7035L42.0574 92.6042L40.8591 90.8657L40.9234 90.6323L41.3973 90.744L42.3316 90.0168L42.0201 89.4215L43.3301 89.3741L45.5406 88.3154L46.072 88.6131L45.9739 88.8634L46.4275 89.55L46.9962 89.8409L47.8356 89.6954L48.4314 89.9051L49.5214 88.4338L51.6574 86.2522L51.6235 85.5351L52.1211 84.5915L52.4088 84.4156L52.8692 84.9026L53.2822 83.9928L54.1589 84.4866L54.2774 84.2295L54.6261 84.4866L54.9646 84.26L55.4114 84.3851L55.6517 84.0469L56.8094 83.6038L57.1411 82.9307L57.9502 82.9612L57.896 83.252L58.2684 83.2554L58.6339 83.0491L58.5933 82.7684L58.9894 82.7548L59.0672 82.3862L59.4768 82.562L59.5411 83.5395L60.6481 83.9792L60.4788 84.2837L60.885 84.7369L60.8038 85.1123L61.3149 85.9444L60.164 85.8429L60.208 86.2725L60.6277 86.5194L60.6176 87.2534L59.4464 87.7404L59.338 88.1835L59.9372 88.9953L60.4179 89.3538L60.7395 89.1915L61.6602 89.6244L62.2593 89.5195L62.1815 89.7394L62.6114 90.1656L63.1801 89.665H63.7014L63.7386 88.9682L64.1753 88.9648L64.2193 88.471L65.0723 89.019L65.4616 88.8059L65.4785 88.3459L65.7324 88.7551L66.4263 88.9412L66.5753 88.7145L66.054 88.5048L65.8678 87.8453L66.0946 87.4191L65.9389 87.0132L65.4176 86.2725L65.2348 86.3198L66.4433 85.481L66.2131 85.6434L65.7222 85.3254L65.3397 84.1112L64.6221 83.8845L64.3885 84.057L64.1347 83.7932L64.3242 82.951L63.7555 82.0107L63.153 81.9431L62.652 82.3963L62.3237 82.1325L62.063 82.4437L61.3521 82.2137L61.3014 81.9194L60.3942 82.2542L60.3299 81.5237L59.9575 81.4594L59.9981 81.0704L60.4754 81.0163L60.6717 80.0997L61.3657 79.6262L61.2167 78.9091L61.3928 78.4863L61.7177 78.7062L62.3372 77.6407L62.0765 76.5212L62.283 76.1728L61.7245 76.0544L62.5471 75.6012L63.6438 72.8006L65.3804 71.566L65.6342 71.0215L65.4481 69.1747L65.0859 68.6031L65.2314 68.2919L64.9132 66.5263L65.14 66.3673L64.9945 65.6165L65.3262 63.6107L64.9945 61.3209L65.3905 60.3637L66.01 60.2757L66.1589 58.916L66.6836 58.6488L66.9984 57.9656L67.9124 57.1606L68.0782 55.8381L68.5521 55.811L68.762 55.5032L69.2596 55.7028L69.8283 55.4897L70.265 54.9823L71.162 54.5697L71.5547 54.979L73.1897 55.2665L72.9561 54.9891L73.6297 54.749L73.5586 54.1198L74.327 54.0217L74.6114 53.3115L75.021 53.4603L75.5998 53.0882L76.1854 53.2201L76.6153 52.8176ZM58.6441 83.8304L58.2887 83.7425L58.5053 83.4279L58.9962 83.4076L58.6441 83.8304Z" fill="#5D6A81" stroke="#282A2D" stroke-width="0.5"/>
<path id="BY-MA" d="M156.397 85.1935L157.105 85.021L157.518 85.3965L157.846 84.8722L158.144 84.977L158.232 84.5881L158.611 84.7809L159.136 83.986L159.065 83.4009L159.556 83.2757L159.698 82.4944L160.788 82.5823L160.5 81.6454L160.808 81.0637L162.033 80.6037L162.023 81.0975L163.09 81.4932L163.794 82.2475L164.318 81.9329L165.754 82.0953L166.867 81.8247L167.51 81.2362L168.235 81.7198L168.678 81.1076L168.567 80.9047L168.871 80.7626L169.152 80.9926L168.726 81.5947L169.396 82.2779L169.118 82.6567L170.246 83.2216L170.303 82.9747L170.828 83.0254L171.39 82.5519L170.997 83.7797L171.914 83.7763L172.216 83.6173L171.63 82.6635L171.677 82.1528L172.828 82.5181L172.825 82.1257L173.482 81.9059L172.771 81.5744L172.459 80.9622L173.282 81.0129L173.759 81.6623L174.385 80.6206L173.759 79.9407L173.939 79.3826L174.914 79.2L174.978 79.4909L174.67 79.8359L174.355 79.8257L174.392 80.1504L175.411 79.802L176.037 80.6713L176.003 81.3951L176.565 81.3579L176.924 80.5529L176.657 80.1707L176.948 79.9542L177.77 80.5901L178.001 80.3838L178.427 80.8235L178.745 80.6713L179.084 78.9226L179.747 79.271L179.358 80.1234L179.548 80.6984L178.59 81.5338L178.143 82.907L179.971 83.3839L180.753 82.1359L181.819 82.2306L181.663 81.5947L181.897 81.1415L182.13 81.5135L182.452 81.5169L182.645 82.7548L183.122 83.1438L183.315 84.057L183.979 83.5734L184.101 84.3445L184.571 84.3175L184.348 84.6219L184.998 84.7707L184.673 84.3445L184.717 83.8541L185.661 83.8406L184.744 83.5192L185.84 82.6331L185.421 82.42L185.922 81.3139L186.264 81.0873L186.501 81.2192L186.724 80.7559L186.362 80.2012L185.868 80.1572L185.671 79.8562L186.152 79.5517L186.68 79.6329L187.553 79.0884L187.797 79.2541L188.748 78.9192L188.383 77.9384L188.586 77.5731L189.266 77.3532L190.021 77.6407L190.126 77.8978L191.02 77.891L191.179 78.6622L192.13 78.3679L193.186 78.7129L193.829 78.3916L193.772 77.6576L194.144 77.475L194.11 76.8932L194.73 76.4028L195.217 77.3803L195.857 77.289L196.121 77.6373L196.778 77.5257L197.214 78.6317L198.088 77.6982L198.26 77.1503L199.035 77.0251L199.215 76.6835L200.173 76.2506L199.78 75.5064L200.393 75.4117L200.762 75.8041L201.598 75.5707L202.336 75.7534L202.434 77.0556L202.718 77.2078L202.823 77.9553L203.27 78.4964L202.83 79.4773L204.038 80.0084L204.57 81.1719L203.676 82.0141L204.536 82.3117L204.275 83.6613L204.414 85.1495L204.925 85.0684L205.538 85.4742L205.981 84.977L206.164 86.0662L206.824 85.985L206.743 86.3875L206.249 86.2454L206.053 86.6242L207.434 86.7629L208.463 87.9366L208.943 87.8757L209.089 88.1294L208.832 88.745L209.729 89.1509L210.352 89.1441L210.595 89.7563L212.173 89.9187L212.87 89.5466L212.792 89.8375L213.388 90.5241L213.408 91.1532L214.62 90.7304L214.847 91.1566L215.172 90.8556L215.886 90.7541L215.7 91.8567L215.372 92.2491L216.208 92.3032L217.098 91.576L217.484 92.0698L217.904 91.7654L218.154 92.1882L218.479 91.8872L218.95 92.0563L218.567 92.6279L218.892 93.3213L218.774 94.0316L217.921 95.3067L218.191 95.787L218.75 95.9494L218.787 97.0115L217.863 97.6507L217.934 98.4117L217.704 98.4929L217.264 99.8188L217.321 100.495L216.529 100.786L216.834 101.053L217.007 100.938L217.027 101.25L216.807 101.611L216.313 101.669L216.082 102.2L216.404 102.325L216.323 102.569L215.5 102.653L215.876 103.127L215.622 104.233L215.822 104.378L216.011 103.834L216.255 104.03L216.34 103.766L216.682 103.739L216.797 104.02L217.098 103.949L218.997 105.075L219.183 104.618L219.718 104.48L220.297 104.71L221.241 103.878L222.697 104.104L222.602 103.8L223.58 103.915L223.973 103.448L224.67 103.272L225.212 104.003L225.818 104.064L225.93 104.358L226.15 104.097H226.718L227.182 105.437L227.896 105.491L228.052 105.19L228.634 105.055L228.712 105.308L228.33 105.724L229.589 105.674L230.13 106.201L230.374 107.334L230.709 107.541L231.366 107.013L232.165 107.064L232.981 106.658L233.048 107.358L233.759 107.662L233.949 108.011L234.003 108.86L232.855 109.617L232.199 109.523L231.84 109.787L231.823 110.216L231.945 110.994L232.246 111.16L232.229 110.321L232.703 110.906L232.178 112.229L232.981 113.534L233.505 113.832L233.339 114.586L234.281 114.749L235.286 115.479L235.018 115.936L236.562 116.129L236.62 117.58L237.185 117.698L237.662 116.477L237.845 116.876L238.678 117.36L238.014 117.539L237.926 117.958L239.947 118.357L240.231 118.097L240.729 118.182L240.231 118.889L240.597 119.886L240.042 119.951L240.022 120.455L240.272 120.871L240.692 120.789L240.902 121.26L240.482 120.992L239.998 121.063L240.082 121.456L239.632 121.946L240.289 123.529L239.067 123.756L238.637 123.346L238.139 123.675L237.777 124.436L236.904 123.37L236.972 124.392L236.474 124.415L236.098 125.386L235.137 124.929L234.643 125.281L234.578 124.71L233.678 124.872L233.725 125.115L234.352 125.315L234.318 125.687L232.686 128.812L232.3 128.927L231.789 129.732L231.122 129.59L230.425 129.797L229.961 130.304L230.063 130.859L229.778 131.447L229.037 132.144L227.561 132.171L227.287 132.716L227.402 133.362L226.133 133.003L225.781 133.818L223.865 134.295L221.956 133.744L221.912 133.365L221.346 133.652L221.241 133.974L219.836 134.055L219.329 133.842L219.512 133.145L219.224 132.976L218.591 132.719L218.212 133.034L217.26 132.885L216.445 131.643L216.214 130.148L215.768 129.996L215.141 129.279L214.772 129.458L212.22 127.977L211.005 129.485L210.081 129.58L209.918 129.232L209.238 129.215L209.069 128.998L206.577 128.68L206.919 130.179L206.428 130.446L206.384 131.068L205.582 131.643L205.629 132.242L205.948 132.252L206.452 132.925L206.232 133.453L205.538 133.521H205.03L204.685 132.756L202.762 132.716L202.756 132.418L202.613 132.624L202.241 132.431L202.055 132.675L201.625 131.498L199.445 131.694L199.076 131.014L199.621 130.493L199.57 129.817L199.11 129.688L198.903 129.009L198.067 129.174L198.03 128.193L197.377 127.784L197.593 127.003L197.39 126.739L197.089 126.918L196.72 126.533L196.236 126.878L195.843 126.259L196.544 125.589L196.849 124.926L196.727 124.689L194.422 124.875L194.279 124.567L193.26 124.774L192.743 124.946L192.851 125.413L192.401 125.809L190.664 125.565L190.441 125.87L189.581 125.947L189.598 126.543L188.565 126.665L187.915 126.042L188.271 125.315L185.905 124.855L186.121 124.375L185.654 124.124L186.145 123.221L185.729 122.991L185.624 123.705L185.072 124.547L184.168 124.456L183.853 125.325L183.244 125.224L183.312 125.569L182.95 126.022L181.795 125.663L181.03 126.269L180.959 126.949L179.812 126.769L179.375 127.209L178.173 127.463L178.143 127.04L177.452 127.94L176.951 127.798L176.471 128.085L176.281 127.892L175.651 128.231L175.279 127.916L174.561 125.586L173.928 125.186L173.983 124.848L173.658 124.446L170.537 123.712L170.577 124.165L170.188 124.838L169.01 124.666L169.142 124.158L169.494 123.986L169.392 123.634L168.908 123.275L168.583 123.441L168.81 123.742L168.086 124.047L167.812 122.721L166.651 123.292L165.418 124.534L165.439 126.255L165.926 126.84L166.014 127.294L165.764 127.365L166.478 129.289L165.276 129.722L165.984 130.077L165.622 130.351L165.71 130.757L165.991 130.696L165.466 131.204L165.554 131.657L165.977 131.745L164.599 132.465L164.234 132.191L163.53 132.377L163.242 131.721L163.002 131.741L162.991 132.107L162.636 132.039L162.551 132.344L162.886 133.169L162.243 133.605L162.798 134.731L163.543 134.468L163.834 135.104L162.795 136.412L163.13 136.595L163.316 137.353L163.645 137.623L165.009 138.215L164.498 138.79L164.721 139.264L163.337 139.707L163.127 139.318L162.924 139.2L162.869 139.443L162.338 138.98L161.607 138.888L160.778 139.142L160.605 138.932L159.708 139.014L159.454 138.817L158.374 139.998L157.183 140.532L156.908 140.17L156.468 140.174L156.509 139.639L156.066 139.582L155.852 140.089L155.822 139.815L155.202 139.589L153.361 139.402L152.965 138.797L152.02 138.743L151.381 138.354L150.873 138.635L149.397 140.972L149.722 142.436L149.146 142.737L149.035 142.558L145.833 142.988L145.971 144.009L143.984 146.783L143.429 146.685L142.881 147.351L141.703 146.969L141.486 148.071L141.821 148.085L141.906 148.518L142.38 148.389L142.414 149.083L141.097 149.093L141.107 149.431L140.322 150.314L139.431 149.857L138.802 150.331L137.62 149.881L136.954 150.28L136.442 150.206L136.175 150.568L135.146 150.321L134.489 150.561L134.266 150.189L133.555 150.875L133.21 150.635L133.342 150.524L132.807 149.817L131.876 149.171L130.647 148.832L130.674 148.126L130.789 147.496L132.062 146.631L132.719 145.048L132.184 143.857L131.883 143.735L131.923 143.258L133.098 142.947L133.003 142.643L133.46 142.054L133.166 141.016L132.942 140.958L132.258 139.497L132.607 138.631L132.837 138.432L133.186 138.679L133.775 138.019L134.499 138.543L135.082 138.594L135.593 137.59L134.838 136.724L134.791 135.658L134.537 135.411L134.892 134.677L134.496 133.379L134.892 132.952L134.513 132.77L134.222 131.988L133.833 132.174L134.259 131.464L133.761 130.771L131.744 131.322L131.301 131.231L131.28 130.96L131.585 130.916L130.847 130.571L131.003 131.187L130.173 131.444L130.007 130.96L130.173 130.679L129.293 130.923L129.879 130.578L130.197 129.702L130.099 129.377L129.212 129.032L128.582 130.05L128.085 129.394L127.618 129.441L127.499 129.925L127.178 129.864L127.012 129.394L126.138 129.766L125.976 128.944L125.543 129.046L124.216 128.268L124.354 127.635L123.782 127.24L123.542 126.11L124.27 126.364L125.021 125.88L125.221 126.215L126.409 126.627L128.836 126.844L129.676 126.793L129.672 126.14L131.835 126.073L132.292 125.853L132.269 124.151L131.487 123.218L130.37 122.782L130.285 122.318L130.525 121.361L131.03 121.459L131.053 121.111L131.602 120.8L131.612 118.598L130.806 117.857L129.889 117.563L130.244 117.566L130.376 117.143L130.813 117.055L131.571 117.505L131.893 116.9L132.306 116.974L133.244 115.773L133.44 116.064L133.741 115.827V115.181L134.005 115.286L134.391 116.145L134.652 115.702L135.691 115.614L135.738 115.158L135.308 115.269L135.021 114.847L135.214 115.455L133.789 115.094L134.713 114.241L136.087 114.309L136.178 113.379L137.055 113.416L136.801 113.013L137.042 111.968L139.289 113.352L140.965 113.419L140.867 112.689L141.896 112.32L142.299 113.325L143.301 113.426L144.194 114.603L144.231 115.232L145.423 115.432L145.44 115.773L145.684 115.848L145.271 113.95L145.789 113.832L145.227 113.629L145.196 113.311L146.384 112.739L146.523 113.084L148.368 113.27L148.669 112.733L148.236 112.374L148.3 111.508L148.009 111.282L148.209 110.808L148.774 111.092L149.069 110.639L148.882 109.668L149.035 108.833L149.637 108.894L149.685 109.445L150.291 109.222L150.897 110.243L151.401 110.118L151.651 109.597L152.616 109.384L152.86 108.806L153.994 108.478L154.343 107.896L154.278 106.949L154.508 106.347L155.03 106.343L155.666 107.317L156.272 107.155L156.17 105.954L156.506 106.015L156.993 105.636L155.981 105.312L156.194 104.591L158.293 104.75L158.692 104.524L158.794 103.874L158.066 103.732L157.866 103.323L157.088 103.475L156.851 102.626L155.653 102.944L155.345 102.728L156.059 102.42L156.969 101.256L156.093 101.767L155.625 101.425L155.646 101.195L156.211 101.121L156.448 100.742L155.761 100.461L156.414 99.0984L155.788 98.7195L155.849 97.5594L155.189 97.025L155.659 96.4838L155.521 95.8479L154.701 95.0395L155.043 94.4544L156.353 93.7373L157.244 93.7509L156.952 93.3314L157.518 88.4439L157.162 88.0685L157.772 87.5409L157.907 86.9354L157.67 86.8238L158.042 86.6006L157.602 86.4585L157.69 86.1744L157.376 86.2116L157.352 85.782H156.546L156.397 85.1935Z" fill="#5D6A81" stroke="#282A2D" stroke-width="0.5"/>
<path id="BY-VI" d="M125.147 1.02029L125.333 1.03721L125.418 2.27176L126.423 2.50853L127.571 3.63147L127.588 4.80176L128.112 4.92353L128.468 4.565L128.688 5.37676L129.355 5.97544L130.062 5.79279L130.952 5.945L131.189 5.025L130.834 4.31132L130.915 3.82088L131.162 3.72956L132.11 4.27412L132.008 4.70368L133.163 3.90882L134.696 3.9325L134.757 3.66191L135.221 3.51985L136.92 4.23015L137.492 3.96971L138.46 4.09147L138.477 4.45338L138.041 4.99118L137.628 4.86603L137.441 5.37676L137.946 6.06L137.973 6.62485L139.005 7.50088L139.12 8.76926L139.96 10.0918L140.109 9.9125L140.542 10.0918L141.608 9.89559L142.631 10.6735L142.976 9.23265L144.354 8.97897L144.641 8.71176L145.109 8.95868L145.105 8.20779L146.639 8.13676L146.852 7.51441L148.683 7.16941L149.299 7.97441L149.858 7.44L150.43 7.51103L151.967 9.23603L152.921 8.85044L153.659 9.16838L154.136 9.03309L155.419 9.95309L156.242 9.81441L157.065 10.0749L157.782 10.6532L157.203 10.934L157.115 11.2925L157.968 11.5326L158.466 12.3174L157.691 12.7469L157.237 12.7266L157.186 13.0006L156.364 13.1122L157.136 14.3569L156.621 14.3603L156.256 15.0232L156.316 16.5487L155.623 17.4991L155.788 18.5003L155.47 19.1125L155.592 19.4981L156.53 19.6672L157.836 20.6041L157.995 21.2028L158.608 21.6899L159.451 21.8353L160.988 20.4621L161.198 19.3696L162.01 18.4665L162.413 18.639L163.395 17.9388L164.332 17.9726L165.25 17.4585L165.663 18.0099L165.612 18.409L165.954 18.5747L166.556 18.4157L167.521 17.3435L167.484 16.7685L167.741 16.8835L168.421 15.7674L168.174 15.3344L168.858 14.8101L170.188 15.2701L170.794 15.0097L170.801 14.4888L171.414 14.4449L172.693 14.9928L173.14 15.6084L173.435 15.4629L174.142 16.1631L174.819 16.1496L175.076 15.3412L175.696 15.3243L175.726 14.6241L175.5 14.269L175.669 14.0626L176.001 14.7966L176.684 14.5835L177.185 14.7222L177.551 14.4449L178.397 14.7729L178.478 14.5294L178.709 16.1732L179.978 16.021L180.685 17.0763L181.508 16.8294L181.786 17.1947L183.668 16.9715L183.783 17.3943L184.45 17.8712L183.894 18.365L184.734 19.7687L186.064 19.8126L187.269 20.78L187.784 22.0146L187.496 22.5625L187.564 23.1443L188.312 23.2085L187.946 23.8376L188.376 23.8681L188.302 24.7948L188.694 24.8354L188.945 23.8985L189.791 23.7565L190.485 26.1884L190.34 26.459L190.671 26.8412L191.775 26.8344L191.761 26.4116L192.242 26.3676L192.384 25.7047L192.841 25.5187L192.489 25.0959L193.193 25.0147L194.307 25.8265L194.794 25.3834L194.886 26.9629L195.39 28.9315L194.395 29.3644L194.334 29.6621L194.774 29.9496L194.73 30.2743L195.136 30.2404L195.505 30.8831L194.51 31.7422L193.928 31.8301L194.29 32.5675L194.107 33.3082L194.876 35.27L194.537 36.2441L193.989 36.3625L193.268 37.4482L192.591 37.8068L192.161 38.4156L191.961 38.8282L192.029 40.4822L193.589 40.8746L193.596 41.4698L194.161 41.7066L194.568 43.8341L195.505 44.2434L195.776 45.2073L196.182 45.2818L195.867 46.3168L196.463 46.4351L196.257 47.3687L196.456 47.7644L196.104 48.6743L196.48 49.6957L196.504 51.3328L196.236 51.5594L196.07 51.3023L194.97 51.0081L194.239 51.7691L195.15 52.52L195.654 53.5043L194.97 53.7173L195.018 54.431L194.144 54.4479L194.148 54.9451L192.96 54.8606L192.066 55.3037L192.049 55.8922L192.252 55.9362L192.421 56.6972L191.907 57.3703L192.113 57.8607L191.497 58.0096L190.326 61.0401L192.584 61.9534L193.643 63.1068L194.314 63.2454L195.377 64.064L195.952 65.082L196.467 64.6762L196.48 65.8363L196.199 66.2557L196.331 66.8984L197.188 66.78L198.839 67.355L199.422 66.8578L199.841 67.196L201.101 67.0776L201.524 67.7473L201.723 68.8398L200.789 70.4329L200.082 70.9335L199.797 71.5593L199.855 72.3947L198.89 72.8885L199.009 73.4771L198.67 73.9201L199.141 74.5594L199.868 74.6643L200.562 75.3238L200.955 75.4219L201.534 75.1513L201.598 75.5707L200.762 75.8041L200.393 75.4118L199.78 75.5065L200.173 76.2506L199.215 76.6835L199.036 77.0251L198.261 77.1503L198.088 77.6982L197.215 78.6318L196.778 77.5257L196.121 77.6373L195.857 77.289L195.217 77.3803L194.73 76.4028L194.111 76.8932L194.144 77.475L193.772 77.6576L193.83 78.3916L193.186 78.7129L192.13 78.3679L191.179 78.6622L191.02 77.891L190.126 77.8978L190.021 77.6407L189.267 77.3532L188.586 77.5731L188.383 77.9384L188.749 78.9193L187.797 79.2541L187.554 79.0884L186.68 79.6329L186.152 79.5518L185.672 79.8562L185.868 80.1572L186.362 80.2012L186.724 80.7559L186.501 81.2193L186.264 81.0873L185.922 81.314L185.421 82.42L185.841 82.6331L184.744 83.5193L185.661 83.8406L184.717 83.8541L184.673 84.3446L184.998 84.7707L184.348 84.6219L184.571 84.3175L184.101 84.3446L183.979 83.5734L183.316 84.0571L183.123 83.1438L182.645 82.7548L182.452 81.5169L182.131 81.5135L181.897 81.1415L181.664 81.5947L181.819 82.2306L180.753 82.1359L179.971 83.384L178.143 82.9071L178.59 81.5338L179.548 80.6984L179.358 80.1234L179.748 79.271L179.084 78.9226L178.746 80.6713L178.428 80.8235L178.001 80.3838L177.771 80.5901L176.948 79.9543L176.657 80.1707L176.925 80.5529L176.566 81.3579L176.004 81.3951L176.038 80.6713L175.412 79.802L174.393 80.1504L174.355 79.8257L174.67 79.8359L174.978 79.4909L174.914 79.2L173.939 79.3826L173.76 79.9407L174.386 80.6206L173.76 81.6623L173.282 81.0129L172.46 80.9622L172.771 81.5744L173.482 81.9059L172.825 82.1257L172.829 82.5181L171.678 82.1528L171.63 82.6635L172.216 83.6173L171.915 83.7763L170.997 83.7797L171.39 82.5519L170.828 83.0254L170.303 82.9747L170.246 83.2216L169.119 82.6568L169.396 82.2779L168.726 81.5947L169.153 80.9926L168.872 80.7626L168.567 80.9047L168.679 81.1076L168.235 81.7198L167.511 81.2362L166.868 81.8247L165.754 82.0953L164.319 81.9329L163.794 82.2475L163.09 81.4932L162.024 81.0975L162.034 80.6037L160.808 81.0637L160.5 81.6454L160.788 82.5823L159.698 82.4944L159.556 83.2757L159.065 83.4009L159.136 83.986L158.612 84.7809L158.232 84.5881L158.144 84.9771L157.847 84.8722L157.518 85.3965L157.105 85.021L156.398 85.1935L155.619 85.5994L154.868 85.1293L155.396 84.3987L155.196 84.0638L155.321 83.7087L155.609 84.1957L156.029 83.6918L156.039 82.5519L156.438 82.0953L156.861 82.0243L155.961 81.7841L155.46 80.8878L155.687 80.3534L155.152 80.262L155.071 79.687L156.452 79.7141L156.709 79.6228L156.946 79.0072L157.484 79.156L157.606 78.9768L156.993 78.1684L157.054 77.2146L157.437 77.1165L156.922 76.3351L156.993 75.9394L156.746 76.0273L156.523 75.7466L157.748 74.1535L157.782 73.6935L157.491 73.3384L158.067 72.0768L157.979 71.0519L158.764 70.4093L158.094 69.0597L157.136 69.2931L157.193 69.8241L156.817 69.9425L156.608 70.6765L155.714 70.4871L156.127 69.8681L155.216 70.9741L155.013 70.5412L154.604 70.4837L153.91 71.1973L153.206 71.0215L152.847 71.2346L152.708 70.9268L152.109 70.8929L151.997 69.6821L151.72 69.4419L152.207 68.9616L151.632 68.6809L151.848 68.2344L150.819 68.3494L150.514 68.691L149.54 68.5659L149.066 68.1972L147.326 69.1882L147.153 69.4723L147.289 70.2469L146.896 70.6596L146.483 70.5209L146.408 70.1623L146.144 70.2469L145.318 69.7193L144.374 69.6787L144.096 69.2998L143.193 69.6415L143.582 70.1082L143.595 70.6054L143.494 70.9437L142.986 71.1601L141.768 71.2954L141.409 71.1804L141.392 70.8151L140.424 70.5784L140.573 70.7881L139.33 71.106L138.47 70.8963L138.538 70.5648L138.193 70.1556L138.518 69.7835L138.514 69.151L137.333 67.1182L136.727 67.2366L136.524 66.8037L136.152 66.7495L135.918 67.2298L132.963 67.1994L132.702 69.4588L132.3 70.7712L131.697 71.8163L131.189 71.8231L130.004 70.1184L129.382 69.8918L129.185 69.0326L128.688 69.3066L128.474 68.549L128.275 68.7079L128.508 69.0394L128.4 69.4825L128.061 68.9515L128.143 68.0788L127.158 67.4193L126.836 66.9018L126.355 66.7901L124.886 67.4937L124.964 67.1825L124.636 67.6526L124.903 68.275L124.121 68.5016L123.806 69.0157L123.63 68.647L123.251 68.6301L121.911 69.3776L121.755 70.4194L121.054 70.6934L120.374 69.5366L119.287 69.6787L118.445 69.1882L118.719 68.5253L118.208 68.1296L117.297 69.151L117.05 69.1916L116.965 68.9176L116.065 69.4723L115.571 69.452L115.374 68.6707L114.806 68.2919L115.046 67.4396L114.01 66.5229L113.993 63.6243L112.886 63.1101L112.348 62.5757L111.901 62.7787L109.88 62.6772L110.371 60.8846L109.681 60.6173L108.902 60.9826L108.767 59.6094L107.995 59.2407L107.843 58.8112L107.338 58.8653L107.162 58.5812L106.648 58.9262L105.365 58.1381L104.799 56.9813L104.126 56.7953L104.41 55.2631L103.665 54.9857L103.615 54.4648L103.428 54.36L103.273 54.5832L103.026 54.2146L103.127 53.5888L103.371 53.4366L102.999 52.75L101.733 53.0003L101.509 52.4185L101.045 52.794L100.744 52.3813L100.226 53.1322L99.9655 52.4456L98.9771 52.794L98.422 52.564L97.8702 52.8176L98.0496 53.0916L98.5167 53.0172L98.3983 53.5043L96.919 53.5144L96.5703 53.9169L95.7241 54.1029L95.5514 53.1694L94.5765 52.449L94.0383 51.6643L93.6355 51.9416L93.3545 51.8063L92.6945 52.7669L92.383 52.4185L92.4169 52.0059L91.8956 51.9551L91.5097 52.2291L91.4285 52.7162L91.7703 53.2438L92.1258 53.254L92.163 53.8493L91.9294 54.0522L91.5097 53.6666L91.1678 54.0793L90.5483 53.7816L90.0541 53.9575L90.0474 54.4682L89.4888 54.5088L89.1165 54.3701L88.8152 53.626L88.4327 53.7715L87.7117 53.1491L87.2716 53.6125L86.378 53.4366L86.2629 53.6125L86.8316 54.1773L85.7077 55.2326L84.2115 54.2721L83.7207 54.7287L82.8372 54.0793L82.3328 54.2788L82.1229 53.7748L81.5475 53.4366L80.1258 53.0578L79.794 53.6023L80.0615 53.8121L80.2849 53.6801L80.2375 54.1571L79.8685 54.3837L79.3675 53.9913L78.616 55.28L77.9932 54.9113L78.1117 54.4784L77.6682 53.3487L77.1977 52.9326L76.6155 52.8176L76.7644 52.0837L77.4584 50.9168L77.5802 49.7701L78.0981 49.6788L78.0338 49.4387L78.2606 49.3406L77.2789 47.9606L78.1151 47.4025L79.0629 47.2334L79.3032 47.0406L79.0696 46.8444L79.706 46.7565L79.6383 46.3506L80.4507 46.1375L81.3342 46.4622L81.4933 46.8579L81.8758 46.54L83.0708 47.0304L83.4668 46.6956L83.5176 46.2153L84.4146 45.6978L85.0679 46.4182L86.1275 45.9718L87.0617 46.2525L87.8674 45.6437L88.3988 45.8094L88.5038 45.3088L88.9032 45.461L89.1266 45.1532L88.7204 44.9334L88.4462 44.0201L88.8863 43.7157L89.1469 43.939L89.7732 43.2693L89.807 42.0178L90.1591 41.6051L90.9715 41.3616L91.4962 40.7494L92.3424 40.4518L92.2646 39.295L91.2829 38.676L89.5193 38.6287L88.1619 37.871L88.0265 38.2938L87.6778 38.0807L87.3427 38.6456L87.2445 38.0773L86.8823 38.2093L86.9771 38.4629L86.6995 38.7606L86.1749 38.7301L86.1241 38.4528L85.6028 38.7538L85.139 38.2972L82.8609 37.7696L82.607 37.4888L83.2874 37.1472L83.4228 36.5519L84.0727 36.5384L84.8005 35.7334L85.3726 35.7198L85.2338 34.9148L85.4978 34.6916L85.0578 33.3996L85.4708 33.4503L85.1153 32.9429L85.6976 32.0906L85.4335 31.6238L85.1018 31.5562L84.7091 30.4738L85.1356 29.6553L86.0936 29.2122L86.8383 27.9878L87.0719 28.0859L87.644 27.6124L87.6203 26.3473L87.3969 26.0091L87.8335 25.2718L87.6643 24.0812L87.3122 24.0304L87.3055 22.9447L87.8403 22.0957L87.7218 21.8928L89.4956 22.0416L90.1591 22.8838L91.1407 23.0868L91.5706 22.2107L93.3444 21.47L93.4832 20.5466L94.0519 19.8431L94.651 18.1249L95.2502 18.1891L95.8967 17.0899L96.9156 16.3762L97.3726 16.6163L97.7449 16.3288L98.9737 16.4709L99.187 15.7065L99.6914 15.446L100.128 15.5813L100.399 15.3344L100.849 16.0075L101.665 16.2341L102.66 17.4044L102.775 17.861L103.594 18.2703L105.25 17.6547L105.693 16.9918L107.345 17.8847L110.222 18.3176L111.952 18.1756L112.551 15.5035L112.169 13.5485L112.886 12.615V11.9216L114.988 9.99029L115.828 9.90912L116.525 9.54382L116.898 8.77265L116.562 8.34985L116.843 8.32618L117.344 7.70721L116.782 7.13221L117.91 6.83456L118.37 6.37794L119.091 6.67221L119.88 5.47823L120.296 4.07456L120.729 3.84118L120.912 3.36765L121.41 3.11735L122.581 3.47588L122.649 3.06662L123.245 2.5525L123.827 2.69794L123.911 2.07897L124.907 1L125.147 1.02029Z" fill="#5D6A81" stroke="#282A2D" stroke-width="0.5"/>
<path id="BY-HM" d="M111.488 104.541L111.238 104.473L110.882 103.644L111.119 103.299L111.38 103.384L111.488 104.541ZM119.206 101.446L118.962 101.422L118.945 100.83L119.372 101.08L119.206 101.446ZM122.689 100.468L123.234 101.145L122.767 101.497L121.907 100.485L122.689 100.468ZM111.298 97.1637L112.131 97.6169L112.659 97.3802L112.541 97.8199L113.018 98.1175L113.59 98.0093L113.966 97.6169L114.751 97.7421L114.931 97.458L115.252 97.5459L114.995 98.7805L113.597 99.4874L114.061 101.064L113.722 101.973L114.819 102.775L114.981 101.635L116.478 101.706L116.975 102.241L116.227 102.812L116.193 103.384L115.516 103.526L114.609 102.883L114.271 103.347L114.379 103.864L113.56 104.256L113.38 104.06L113.594 103.705L113.184 103.421L113.594 103.137L113.38 102.69L112.845 103.083L112.131 103.171L108.692 102.833L108.391 103.046L108.232 102.69L107.484 102.44L107.199 101.568L106.61 101.781L106.627 102.031L105.967 101.622L106.61 101.016H106.949V99.3419L107.429 98.3611L108.161 97.6305L108.963 97.3463L111.298 97.1637Z" fill="#5D6A81" stroke="#282A2D" stroke-width="0.5"/>
<path id="BY-MI" d="M78.6161 55.28L79.3676 53.9914L79.8686 54.3837L80.2375 54.1571L80.2849 53.6802L80.0615 53.8155L79.7941 53.6024L80.1292 53.0612L81.5475 53.44L82.1264 53.7783L82.3363 54.2822L82.8372 54.0827L83.7207 54.7355L84.2116 54.2789L85.7078 55.2394L86.835 54.1841L86.2663 53.6193L86.3814 53.44L87.275 53.6193L87.7117 53.1559L88.4327 53.7783L88.8152 53.6362L89.1165 54.3769L89.4889 54.5156L90.0474 54.4784L90.0542 53.9677L90.5484 53.7952L91.1645 54.0894L91.5063 53.6768L91.9261 54.0624L92.1597 53.8594L92.1224 53.2641L91.767 53.2574L91.4285 52.7264L91.5097 52.2393L91.8956 51.9653L92.4169 52.0161L92.3831 52.4287L92.6945 52.7771L93.3546 51.8165L93.6355 51.9518L94.0384 51.6744L94.58 52.4625L95.5549 53.183L95.7275 54.1165L96.5738 53.9305L96.9224 53.528L98.4017 53.5178L98.5202 53.0308L98.0564 53.1052L97.877 52.8312L98.4288 52.5741L98.9805 52.8041L99.969 52.4558L100.23 53.1424L100.751 52.3915L101.052 52.8041L101.516 52.4321L101.743 53.0139L103.009 52.7636L103.378 53.4502L103.134 53.6024L103.032 54.2281L103.28 54.5968L103.439 54.3769L103.625 54.4818L103.676 55.0027L104.42 55.28L104.136 56.8122L104.81 56.9983L105.375 58.155L106.658 58.9431L107.176 58.6015L107.352 58.8822L107.856 58.8315L108.008 59.2611L108.78 59.6297L108.912 61.0064L109.691 60.6377L110.385 60.9049L109.894 62.6975L111.915 62.7956L112.362 62.5927L112.9 63.1271L114.01 63.6412L114.024 66.5399L115.06 67.4565L114.823 68.3089L115.391 68.6877L115.588 69.4656L116.082 69.4859L116.986 68.9312L117.07 69.2052L117.314 69.1612L118.225 68.1397L118.736 68.5355L118.461 69.1984L119.308 69.6889L120.394 69.5468L121.071 70.7036L121.775 70.4296L121.931 69.3878L123.272 68.6403L123.651 68.6572L123.827 69.0293L124.142 68.5118L124.92 68.2886L124.653 67.6628L124.984 67.1927L124.903 67.5039L126.372 66.8003L126.856 66.9119L127.178 67.4294L128.166 68.089L128.085 68.9616L128.424 69.4927L128.532 69.0496L128.298 68.7181L128.498 68.5591L128.711 69.3168L129.212 69.0462L129.409 69.9019L130.032 70.1286L131.22 71.8366L131.724 71.8299L132.327 70.7847L132.733 69.4724L132.994 67.213L135.952 67.2434L136.186 66.7665L136.558 66.8172L136.761 67.2536L137.367 67.1318L138.548 69.1646L138.552 69.7971L138.23 70.1725L138.575 70.5818L138.508 70.9133L139.368 71.123L140.61 70.805L140.461 70.5953L141.429 70.8321L141.446 71.1974L141.805 71.3124L143.023 71.1737L143.531 70.9572L143.633 70.619L143.619 70.1252L143.233 69.655L144.137 69.3168L144.418 69.6956L145.359 69.7362L146.185 70.2639L146.449 70.1793L146.52 70.5412L146.937 70.6799L147.329 70.2672L147.19 69.4927L147.366 69.2086L149.106 68.2175L149.58 68.5828L150.555 68.708L150.86 68.3697L151.889 68.2547L151.672 68.7012L152.248 68.9819L151.76 69.4656L152.041 69.7058L152.153 70.9133L152.752 70.9471L152.891 71.2583L153.25 71.0452L153.954 71.2211L154.648 70.5074L155.054 70.5649L155.26 70.9978L156.171 69.8918L155.755 70.5108L156.648 70.7002L156.858 69.9662L157.234 69.8512L157.18 69.3168L158.138 69.0834L158.808 70.433L158.023 71.0722L158.111 72.1005L157.535 73.3587L157.826 73.7139L157.792 74.1739L156.564 75.7703L156.79 76.0477L157.034 75.9631L156.963 76.3589L157.478 77.1402L157.095 77.2383L157.034 78.1921L157.647 79.0005L157.528 79.1797L156.99 79.0309L156.757 79.6465L156.499 79.7378L155.118 79.7108L155.199 80.2824L155.734 80.3771L155.507 80.9115L156.008 81.8044L156.906 82.048L156.482 82.1156L156.083 82.5722L156.073 83.7121L155.653 84.2161L155.365 83.729L155.24 84.0841L155.44 84.4224L154.912 85.153L155.663 85.6231L156.442 85.2172L156.591 85.8058H157.396L157.42 86.2353L157.735 86.1981L157.647 86.4822L158.087 86.6243L157.718 86.8509L157.951 86.9625L157.816 87.568L157.207 88.0956L157.562 88.4711L156.997 93.3586L157.288 93.778L156.398 93.7644L155.088 94.4815L154.742 95.0667L155.562 95.8717L155.7 96.5075L155.227 97.0487L155.89 97.5831L155.829 98.7433L156.455 99.1255L155.802 100.489L156.489 100.773L156.249 101.148L155.683 101.226L155.663 101.453L156.13 101.794L157.007 101.283L156.096 102.45L155.382 102.758L155.69 102.975L156.889 102.657L157.126 103.506L157.904 103.353L158.104 103.763L158.832 103.901L158.733 104.551L158.331 104.777L156.235 104.618L156.022 105.339L157.034 105.664L156.547 106.042L156.215 105.985L156.316 107.186L155.711 107.345L155.074 106.37L154.556 106.374L154.326 106.976L154.39 107.923L154.042 108.505L152.911 108.833L152.667 109.408L151.703 109.624L151.452 110.145L150.951 110.27L150.345 109.249L149.739 109.472L149.695 108.921L149.093 108.856L148.937 109.695L149.123 110.666L148.829 111.119L148.263 110.835L148.064 111.309L148.355 111.535L148.291 112.401L148.724 112.76L148.423 113.298L146.574 113.112L146.436 112.766L145.247 113.338L145.278 113.656L145.836 113.859L145.322 113.977L145.735 115.878L145.491 115.804L145.478 115.466L144.286 115.263L144.249 114.634L143.355 113.457L142.353 113.355L141.95 112.35L140.925 112.719L141.023 113.45L139.347 113.382L137.096 111.995L136.856 113.04L137.11 113.443L136.236 113.406L136.145 114.336L134.771 114.268L133.85 115.121L135.275 115.483L135.082 114.874L135.37 115.297L135.796 115.185L135.749 115.641L134.713 115.729L134.452 116.173L134.067 115.313L133.803 115.209L133.806 115.855L133.505 116.095L133.308 115.8L132.374 117.005L131.958 116.93L131.639 117.539L130.881 117.086L130.448 117.174L130.313 117.596L129.961 117.593L130.878 117.891L131.683 118.632L131.673 120.83L131.125 121.145L131.101 121.49L130.597 121.395L130.357 122.352L130.441 122.815L131.555 123.248L132.337 124.182L132.361 125.883L131.904 126.103L129.74 126.171L129.744 126.824L128.904 126.874L126.477 126.658L125.289 126.245L125.089 125.914L124.338 126.397L123.61 126.144L123.851 127.273L124.423 127.669L124.284 128.302L125.611 129.08L126.044 128.981L126.206 129.8L127.08 129.431L127.249 129.902L127.571 129.962L127.689 129.475L128.156 129.428L128.654 130.084L129.28 129.066L130.167 129.411L130.269 129.736L129.95 130.612L129.365 130.957L130.245 130.713L130.079 130.997L130.245 131.481L131.074 131.224L130.918 130.608L131.66 130.953L131.355 131.001L131.375 131.271L131.819 131.363L133.84 130.811L134.337 131.505L133.911 132.215L134.3 132.029L134.591 132.81L134.97 132.993L134.574 133.419L134.97 134.718L134.615 135.452L134.869 135.702L134.913 136.768L135.668 137.634L135.157 138.638L134.574 138.587L133.85 138.063L133.261 138.719L132.912 138.476L132.682 138.675L132.333 139.541L133.017 141.006L133.244 141.063L133.535 142.098L133.082 142.69L133.173 142.991L132.002 143.306L131.961 143.779L132.262 143.904L132.801 145.095L132.144 146.678L130.868 147.544L130.753 148.173L130.729 148.88L131.958 149.218L132.889 149.864L133.423 150.571L133.291 150.683L132.516 152.107L132.479 156.314L130.201 158.584L126.657 159.149L126.508 158.384L124.947 158.679L124.646 157.17L121.434 157.586L120.817 157.921L121.109 159.484L120.533 159.815L120.506 160.931H119.816L119.111 161.344L116.833 160.722L114.819 160.924L114.691 160.147L112.727 158.932L112.054 158.912L112.473 157.025L111.983 157.004L112.016 156.385L111.576 156.605L111.441 156.25L110.825 156.893L110.182 156.287L110.114 156.778L109.603 156.984L108.215 156.764L108.13 157.146L106.58 156.839L106.062 158.127L105.798 158.144L105.788 158.476L105.243 158.54L105.869 160.086L105.642 160.515L104.549 161.412L104.258 161.949L103.523 162.311L103.513 162.558L102.355 162.24L102.315 161.428L100.744 161.459L100.632 160.065L99.9453 160.13L99.6914 158.628L98.0429 158.557L98.0463 157.576L97.7518 157.322L98.0056 157.302L97.982 155.716L97.5757 155.678L97.4843 154.539L97.0308 154.566L96.7363 154.153L96.7024 153.328L97.4065 153.321L97.332 151.738L96.9834 151.606L97.1391 151.028L98.1681 150.71L97.8804 149.492L97.2135 149.181L97.437 148.102L96.8683 146.617L95.5278 148.457L93.9944 147.51L93.7032 147.551L93.2293 146.85L92.4338 147.179L91.5199 147.084L90.6025 145.89L90.325 143.698L89.9662 143.563L89.9255 143.803L89.2858 143.779L89.4245 144.165L88.7374 143.982L88.1484 143.059L87.9724 143.269L87.1836 143.137L87.3123 143.022L86.2155 141.96L85.4505 144.033L84.6821 144.439L84.3707 143.269L82.7357 145.64L82.6985 145.183L81.3207 144.392L81.1143 143.691L81.2361 143.15L83.0674 141.314L82.6578 141.057L82.4412 140.4L81.815 139.731L81.2598 138.297L81.3884 137.853L81.8827 137.759L82.1196 137.343L83.0877 137.441L82.9557 136.166L83.169 135.956L82.9557 135.814L83.3619 135.222L84.5907 135.601L84.7599 135.432L84.3537 133.977L83.6497 133.926L83.3552 132.624L81.8048 132.648L81.0533 132.137L81.0059 131.403L80.5625 131.021L80.0073 131.126L80.0006 130.585L79.6688 130.118L78.7075 129.766L78.4367 128.826L79.3879 128.576L79.2322 128.085L79.547 127.673L80.1901 127.52L80.2341 126.749L81.2767 126.712L81.6457 124.256L81.1684 124.179L80.637 122.372L80.9044 122.156L81.3546 122.284L82.035 121.473L82.3261 121.709L83.1724 121.226L84.5162 121.402L84.7599 121.07L86.1749 120.789L85.5791 119.396L85.481 116.528L85.1154 116.639L84.9461 116.142L84.6855 116.145L84.4722 116.602L83.934 116.213L85.0951 115.313L85.1289 114.177L83.626 113.436L83.7952 113.23L82.8372 112.361L82.5563 111.41L81.5306 110.507L81.5746 110.003L81.1346 109.611L80.5151 109.614L80.7859 108.451L79.2999 108.021L79.2152 107.446L78.0948 105.542L78.413 105.227L77.9729 104.578L78.4841 104.155L78.0711 103.661L77.5803 103.962L77.1639 103.55L77.4313 103.458L77.2113 102.941L77.9458 102.849L77.2959 101.341L78.2336 101.277L78.5585 100.783L78.9072 101.212L79.6688 100.418L81.0736 99.9203L80.4102 98.7162L80.9992 98.8177L81.6863 98.564L82.4107 97.6406L81.4663 95.459L80.2951 96.3925L79.1746 96.6496L79.7128 95.1986L79.5267 93.2097L78.2573 93.575L77.7157 94.1061L77.4618 93.9944L76.5681 94.6405L75.7219 94.3259L75.6339 93.6596L75.1295 93.1049L75.2412 92.5164L74.8519 91.7486L75.0482 91.5152L74.6319 91.0958L74.7808 89.9661L75.2581 89.7361L75.2513 89.3268L74.7504 89.32L74.1444 89.7158L73.6875 89.5331L73.3422 89.8612L74.0226 90.4836L73.8702 90.9131L71.7309 89.7259L71.5989 89.2591L72.5196 88.0347L72.6449 87.2399L72.9224 86.9625L73.1458 87.0775L73.0071 87.5071L73.3659 87.8555L74.1241 87.8047L74.5236 87.1587L75.4308 86.6716L76.5952 85.5961L77.0319 85.9343L77.4719 85.5352L77.9831 85.9952L78.0779 86.4552L78.3385 86.2455L79.3642 86.7562L79.7907 86.5228L80.2985 86.6818L80.8502 85.9783L80.7182 85.7314L81.1955 85.6536L81.0533 85.2612L81.6085 84.3581L81.8353 84.4021L82.2956 83.2927L82.6646 83.2656L82.7932 82.9443L83.0945 83.1371L83.3585 82.8259L83.9171 82.7414L83.8223 81.9465L84.7363 79.8562L85.1323 79.8596L84.9664 79.085L85.3625 79.0546L85.6874 78.2936L86.5676 78.3308L87.7726 76.7681L87.1227 76.4028L87.5526 76.1965L87.4172 75.9699L87.9554 74.7725L87.6237 74.3464L87.7016 73.5041L87.2581 73.5718L87.3969 73.1084L86.9907 72.9325L87.0212 72.3305L87.2886 72.0294L86.9332 71.6303L88.1755 72.1377L88.1518 70.7374L88.9506 70.7543L89.0556 70.3214L88.2262 70.0034L88.2025 68.5693L88.558 67.9402L87.6305 68.1702L87.5086 67.8894L87.0618 67.7914L86.598 68.2209L86.4254 67.7812L85.982 67.5309L85.8364 66.4756L85.1594 65.2005L85.464 63.9896L85.2982 63.3165L84.1777 62.8497L82.7289 60.4212L82.2076 59.9646L81.3749 60.0627L80.9416 60.3975L80.5388 60.225L80.0581 60.5294L80.2206 60.1236L79.8922 58.8687L80.2578 58.5711L80.2748 57.8608L80.708 57.5936L78.5721 55.6284L78.6161 55.28ZM111.299 97.1637L112.131 97.6169L112.66 97.3802L112.541 97.8199L113.018 98.1175L113.59 98.0093L113.966 97.6169L114.751 97.7421L114.931 97.458L115.252 97.5459L114.995 98.7805L113.597 99.4874L114.061 101.064L113.722 101.973L114.819 102.775L114.982 101.635L116.478 101.706L116.975 102.241L116.227 102.812L116.194 103.384L115.517 103.526L114.609 102.883L114.271 103.347L114.379 103.864L113.56 104.256L113.381 104.06L113.594 103.705L113.184 103.421L113.594 103.137L113.381 102.69L112.846 103.083L112.131 103.171L108.692 102.833L108.391 103.046L108.232 102.69L107.484 102.44L107.199 101.568L106.61 101.781L106.627 102.031L105.967 101.622L106.61 101.016H106.949V99.3419L107.43 98.3611L108.161 97.6305L108.963 97.3464L111.299 97.1637ZM122.689 100.468L123.234 101.145L122.767 101.497L121.948 100.374L122.689 100.468ZM119.206 101.446L118.962 101.422L118.946 100.83L119.372 101.08L119.206 101.446ZM111.363 104.618L110.882 103.644L111.119 103.299L111.38 103.384L111.559 104.334L111.363 104.618Z" fill="#5D6A81" stroke="#282A2D" stroke-width="0.5"/>
</g>
</g>
</svg>
