<svg width="381" height="95" viewBox="0 0 381 95" fill="none" xmlns="http://www.w3.org/2000/svg">
<path d="M377.236 15.3425C379.91 14.1082 381.078 10.9395 379.843 8.26511C378.609 5.59067 375.44 4.42321 372.766 5.65751C370.091 6.89181 368.924 10.0605 370.158 12.7349C371.393 15.4093 374.561 16.5768 377.236 15.3425ZM0.500664 94.4999L11.9709 93.1703L5.08426 83.9016L0.500664 94.4999ZM375.129 9.50829C374.466 9.42238 373.804 9.33701 373.143 9.2522L372.889 11.2359C373.549 11.3206 374.21 11.4059 374.872 11.4917L375.129 9.50829ZM369.19 8.7499C367.876 8.58467 366.566 8.42168 365.261 8.26096L365.016 10.246C366.32 10.4065 367.628 10.5693 368.94 10.7343L369.19 8.7499ZM361.356 7.78566C360.03 7.62607 358.708 7.46889 357.389 7.31417L357.156 9.30053C358.472 9.45503 359.793 9.61197 361.117 9.77134L361.356 7.78566ZM353.443 6.85692C352.132 6.70699 350.824 6.55957 349.521 6.4147L349.3 8.40246C350.601 8.54709 351.906 8.69428 353.216 8.84397L353.443 6.85692ZM345.58 5.98318C344.255 5.84035 342.934 5.70022 341.618 5.56284L341.41 7.55205C342.724 7.68919 344.043 7.82906 345.365 7.97166L345.58 5.98318ZM337.68 5.15905C336.368 5.02696 335.061 4.89771 333.757 4.7713L333.564 6.76196C334.865 6.88812 336.17 7.01714 337.479 7.14898L337.68 5.15905ZM329.782 4.39354C328.46 4.27061 327.143 4.15072 325.83 4.03391L325.653 6.02604C326.963 6.14261 328.278 6.26226 329.596 6.38494L329.782 4.39354ZM321.901 3.6927C320.575 3.58028 319.252 3.47108 317.933 3.36515L317.773 5.35873C319.089 5.46442 320.409 5.57338 321.732 5.68556L321.901 3.6927ZM313.969 3.05584C312.652 2.95608 311.338 2.85968 310.028 2.76668L309.887 4.76165C311.193 4.85443 312.504 4.9506 313.818 5.05014L313.969 3.05584ZM306.07 2.49527C304.741 2.4075 303.417 2.32333 302.096 2.24281L301.974 4.23911C303.292 4.31941 304.613 4.40337 305.938 4.49093L306.07 2.49527ZM298.145 2.01231C296.824 1.9387 295.506 1.86885 294.192 1.80283L294.092 3.8003C295.402 3.86615 296.716 3.9358 298.034 4.00921L298.145 2.01231ZM290.211 1.61407C288.888 1.5551 287.569 1.5001 286.253 1.44915L286.175 3.44764C287.487 3.49846 288.803 3.55329 290.122 3.61208L290.211 1.61407ZM282.301 1.30794C280.969 1.26436 279.641 1.22504 278.316 1.19L278.263 3.1893C279.584 3.22423 280.908 3.26344 282.236 3.30687L282.301 1.30794ZM274.352 1.09786C273.031 1.07143 271.714 1.04937 270.4 1.03176L270.373 3.03159C271.682 3.04914 272.995 3.07112 274.312 3.09747L274.352 1.09786ZM266.412 0.99195C265.087 0.983298 263.764 0.97927 262.445 0.979949L262.446 2.97994C263.761 2.97927 265.078 2.98329 266.399 2.99192L266.412 0.99195ZM258.492 0.99617C257.16 1.00648 255.831 1.02169 254.505 1.04186L254.536 3.04164C255.856 3.02152 257.18 3.00638 258.507 2.99612L258.492 0.99617ZM250.538 1.11739C249.217 1.14764 247.898 1.18294 246.583 1.22337L246.644 3.22244C247.954 3.18216 249.268 3.147 250.584 3.11686L250.538 1.11739ZM242.601 1.36185C241.276 1.41331 239.955 1.47007 238.636 1.53223L238.73 3.53001C240.043 3.46812 241.359 3.41159 242.678 3.36035L242.601 1.36185ZM234.68 1.73539C233.353 1.80923 232.028 1.88865 230.706 1.97372L230.834 3.9696C232.15 3.8849 233.47 3.80582 234.792 3.7323L234.68 1.73539ZM226.747 2.24599C225.427 2.3427 224.109 2.44516 222.794 2.55346L222.958 4.54671C224.267 4.43891 225.579 4.33691 226.893 4.24065L226.747 2.24599ZM218.829 2.89831C217.51 3.01921 216.194 3.1461 214.879 3.27906L215.081 5.26891C216.389 5.13659 217.699 5.0103 219.012 4.88995L218.829 2.89831ZM210.932 3.6974C209.613 3.84362 208.297 3.99607 206.982 4.1548L207.222 6.14038C208.53 5.98242 209.84 5.83073 211.153 5.68523L210.932 3.6974ZM203.045 4.64999C201.731 4.82186 200.419 5.00013 199.109 5.1849L199.388 7.1653C200.692 6.98147 201.997 6.8041 203.304 6.6331L203.045 4.64999ZM195.176 5.76007C193.867 5.95836 192.56 6.16325 191.254 6.3748L191.574 8.34905C192.873 8.1386 194.173 7.93478 195.476 7.73751L195.176 5.76007ZM187.336 7.03075C186.03 7.25634 184.726 7.48869 183.424 7.72792L183.785 9.69501C185.081 9.45706 186.378 9.22594 187.676 9.00155L187.336 7.03075ZM179.521 8.46625C178.222 8.71931 176.923 8.9793 175.627 9.24631L176.03 11.2052C177.32 10.9397 178.611 10.6811 179.903 10.4294L179.521 8.46625ZM171.739 10.0685C170.445 10.3496 169.152 10.6379 167.859 10.9333L168.305 12.883C169.59 12.5892 170.876 12.3025 172.164 12.023L171.739 10.0685ZM163.995 11.8389C162.708 12.148 161.421 12.4643 160.136 12.7879L160.624 14.7274C161.903 14.4056 163.182 14.091 164.462 13.7836L163.995 11.8389ZM156.285 13.7798C155.008 14.1164 153.731 14.4603 152.455 14.8116L152.985 16.7399C154.255 16.3906 155.524 16.0486 156.795 15.7138L156.285 13.7798ZM148.628 15.8876C147.355 16.2529 146.084 16.6257 144.812 17.0059L145.385 18.922C146.65 18.5439 147.914 18.1733 149.18 17.81L148.628 15.8876ZM141.019 18.1629C139.755 18.5561 138.491 18.9568 137.227 19.365L137.842 21.2681C139.098 20.8622 140.355 20.4637 141.613 20.0727L141.019 18.1629ZM133.452 20.6071C132.201 21.0263 130.95 21.453 129.699 21.8872L130.355 23.7767C131.599 23.3448 132.843 22.9204 134.087 22.5035L133.452 20.6071ZM125.946 23.2127C124.703 23.6594 123.459 24.1135 122.215 24.5753L122.911 26.4502C124.149 25.9909 125.385 25.5392 126.622 25.095L125.946 23.2127ZM118.506 25.9749C117.269 26.4489 116.032 26.9306 114.795 27.4199L115.53 29.2798C116.761 28.7931 117.992 28.3139 119.222 27.8424L118.506 25.9749ZM111.111 28.8985C109.891 29.3957 108.67 29.9005 107.448 30.4128L108.221 32.2571C109.437 31.7475 110.651 31.2454 111.866 30.7507L111.111 28.8985ZM103.781 31.9724C102.57 32.4948 101.358 33.0247 100.145 33.5621L100.956 35.3906C102.162 34.8558 103.368 34.3286 104.573 33.8088L103.781 31.9724ZM96.5314 35.1852C95.3258 35.7337 94.1194 36.2897 92.912 36.8533L93.758 38.6656C94.9595 38.1048 96.16 37.5515 97.3597 37.0056L96.5314 35.1852ZM89.3232 38.5494C88.1366 39.1171 86.949 39.6922 85.7603 40.2746L86.6403 42.0706C87.8235 41.4909 89.0055 40.9186 90.1864 40.3536L89.3232 38.5494ZM82.1908 42.0443C81.0104 42.6363 79.8289 43.2356 78.6462 43.8422L79.559 45.6218C80.7364 45.0179 81.9125 44.4213 83.0874 43.832L82.1908 42.0443ZM75.1364 45.6623C73.9652 46.2763 72.7927 46.8975 71.6188 47.526L72.5628 49.2892C73.7316 48.6634 74.899 48.0449 76.0649 47.4337L75.1364 45.6623ZM68.114 49.4221C66.9638 50.0507 65.8121 50.6864 64.659 51.3293L65.6329 53.0762C66.7811 52.436 67.9279 51.803 69.0732 51.177L68.114 49.4221ZM61.1951 53.2791C60.0398 53.9357 58.8828 54.5995 57.7243 55.2704L58.7266 57.0011C59.8805 56.3329 61.0327 55.6718 62.1834 55.0179L61.1951 53.2791ZM54.3254 57.2568C53.1908 57.9258 52.0546 58.6017 50.9167 59.2846L51.9459 60.9995C53.0794 60.3193 54.2111 59.646 55.3412 58.9796L54.3254 57.2568ZM47.4979 61.3542C46.3772 62.0384 45.2548 62.7294 44.1307 63.4272L45.1855 65.1264C46.3055 64.4312 47.4237 63.7428 48.5401 63.0612L47.4979 61.3542ZM40.7784 65.5249C39.6592 66.2308 38.5382 66.9435 37.4153 67.663L38.4943 69.347C39.6132 68.6301 40.7302 67.9199 41.8454 67.2165L40.7784 65.5249ZM34.0684 69.824C32.9719 70.5374 31.8735 71.2572 30.7733 71.9836L31.8752 73.6527C32.9717 72.9288 34.0663 72.2114 35.1591 71.5004L34.0684 69.824ZM27.4668 74.1823C26.3627 74.9217 25.2566 75.6677 24.1486 76.4203L25.2722 78.0747C26.3768 77.3246 27.4792 76.581 28.5797 75.844L27.4668 74.1823ZM20.8931 78.6463C19.812 79.3904 18.729 80.1409 17.6439 80.8976L18.788 82.5381C19.8698 81.7836 20.9494 81.0355 22.0271 80.2937L20.8931 78.6463ZM14.3826 83.1869C13.2999 83.9517 12.2152 84.7228 11.1283 85.5003L12.2919 87.127C13.3756 86.3518 14.4571 85.583 15.5366 84.8204L14.3826 83.1869ZM7.93675 87.797C6.87085 88.5686 5.80288 89.3462 4.73281 90.13L5.9146 91.7435C6.9817 90.9619 8.04666 90.1864 9.10952 89.417L7.93675 87.797Z" fill="#C8A35F"/>
</svg>
