<svg width="32" height="199" viewBox="0 0 32 199" fill="none" xmlns="http://www.w3.org/2000/svg">
<path id="Vector 1" d="M0.666667 193C0.666667 195.945 3.05448 198.333 6 198.333C8.94552 198.333 11.3333 195.945 11.3333 193C11.3333 190.054 8.94552 187.667 6 187.667C3.05448 187.667 0.666667 190.054 0.666667 193ZM20.2008 -6.10352e-05L18.4048 11.4064L29.1811 7.25851L20.2008 -6.10352e-05ZM6.92866 193.371C7.16506 192.779 7.40313 192.175 7.64267 191.561L5.77909 190.835C5.54157 191.444 5.30558 192.043 5.07134 192.629L6.92866 193.371ZM9.05282 187.854C9.50143 186.647 9.95384 185.403 10.4089 184.125L8.52468 183.454C8.07267 184.724 7.62344 185.959 7.17814 187.157L9.05282 187.854ZM11.717 180.373C12.136 179.147 12.5563 177.893 12.9771 176.612L11.077 175.988C10.6587 177.261 10.2408 178.508 9.82439 179.727L11.717 180.373ZM14.1865 172.86C14.5779 171.622 14.969 170.363 15.3589 169.083L13.4457 168.5C13.0578 169.773 12.6689 171.026 12.2796 172.257L14.1865 172.86ZM16.4956 165.28C16.8629 164.028 17.2286 162.758 17.5921 161.471L15.6674 160.927C15.3057 162.208 14.9419 163.471 14.5765 164.717L16.4956 165.28ZM18.6455 157.669C18.9886 156.408 19.3291 155.131 19.6666 153.841L17.7316 153.335C17.3958 154.619 17.057 155.889 16.7156 157.145L18.6455 157.669ZM20.6518 149.997C20.9695 148.732 21.2838 147.455 21.5944 146.167L19.6501 145.698C19.341 146.98 19.0282 148.251 18.7121 149.509L20.6518 149.997ZM22.5047 142.31C22.7998 141.032 23.0909 139.743 23.3775 138.445L21.4245 138.014C21.1393 139.306 20.8496 140.588 20.556 141.859L22.5047 142.31ZM24.2106 134.584C24.4818 133.298 24.7482 132.002 25.0096 130.699L23.0487 130.306C22.7886 131.603 22.5234 132.892 22.2536 134.172L24.2106 134.584ZM25.7677 126.82C26.0132 125.53 26.2535 124.232 26.4882 122.928L24.5198 122.574C24.2864 123.871 24.0473 125.162 23.803 126.446L25.7677 126.82ZM27.1706 119.022C27.3899 117.728 27.6034 116.428 27.8108 115.123L25.8355 114.809C25.6293 116.108 25.4169 117.401 25.1988 118.688L27.1706 119.022ZM28.412 111.205C28.6046 109.904 28.7908 108.599 28.9702 107.289L26.9888 107.017C26.8103 108.32 26.6251 109.619 26.4336 110.912L28.412 111.205ZM29.4862 103.363C29.6507 102.056 29.8082 100.744 29.9585 99.4298L27.9714 99.2027C27.822 100.51 27.6654 101.813 27.5018 103.114L29.4862 103.363ZM30.3851 95.4957C30.5196 94.1833 30.6467 92.8683 30.7658 91.551L28.774 91.3708C28.6555 92.68 28.5293 93.9871 28.3955 95.2917L30.3851 95.4957ZM31.0983 87.6068C31.201 86.2912 31.2955 84.9739 31.3816 83.6552L29.3859 83.5249C29.3003 84.835 29.2064 86.1439 29.1043 87.4512L31.0983 87.6068ZM31.6139 79.7012C31.6826 78.3825 31.7426 77.063 31.7935 75.7432L29.795 75.6662C29.7445 76.9768 29.6849 78.2872 29.6166 79.5971L31.6139 79.7012ZM31.9185 71.7839C31.9508 70.4625 31.9738 69.1413 31.9869 67.8207L29.987 67.8008C29.974 69.1115 29.9512 70.423 29.9191 71.7349L31.9185 71.7839ZM31.9966 63.8587C31.9898 62.5359 31.9728 61.2143 31.9453 59.8942L29.9457 59.9359C29.973 61.2453 29.9898 62.5565 29.9966 63.869L31.9966 63.8587ZM31.8306 55.9314C31.7814 54.6094 31.7214 53.2894 31.65 51.9721L29.6529 52.0803C29.7237 53.3861 29.7832 54.6947 29.832 56.0056L31.8306 55.9314ZM31.4005 48.0116C31.3056 46.6922 31.1989 45.3758 31.0801 44.063L29.0882 44.2433C29.2059 45.5436 29.3116 46.8477 29.4057 48.1552L31.4005 48.0116ZM30.6841 40.1108C30.5392 38.7938 30.3817 37.4809 30.211 36.1726L28.2278 36.4313C28.3967 37.726 28.5527 39.0256 28.6961 40.3295L30.6841 40.1108ZM29.6566 32.2431C29.4572 30.9308 29.2441 29.6237 29.017 28.3225L27.0468 28.6664C27.2714 29.9529 27.4821 31.2454 27.6793 32.5435L29.6566 32.2431ZM28.2906 24.4257C28.0318 23.1213 27.7581 21.8234 27.4693 20.5325L25.5176 20.9692C25.8028 22.244 26.0731 23.5261 26.3289 24.8149L28.2906 24.4257ZM26.5536 16.6684C26.2308 15.3802 25.8922 14.0996 25.5373 12.8274L23.6109 13.3647C23.9609 14.6196 24.295 15.883 24.6135 17.1545L26.5536 16.6684ZM24.4154 9.01015C24.0233 7.74205 23.6142 6.48298 23.1875 5.23351L21.2948 5.87974C21.715 7.11046 22.1182 8.35106 22.5047 9.60098L24.4154 9.01015Z" fill="#C8A35F"/>
</svg>
