<svg width="89" height="24" viewBox="0 0 89 24" fill="none" xmlns="http://www.w3.org/2000/svg">
<path id="Vector 3" d="M85.2351 10.8425C87.9095 9.60817 89.077 6.43952 87.8427 3.76509C86.6084 1.09065 83.4397 -0.0768071 80.7653 1.15749C78.0909 2.39179 76.9234 5.56044 78.1577 8.23487C79.392 10.9093 82.5606 12.0768 85.2351 10.8425ZM3.91636e-07 22L11.4124 23.7578L7.22852 12.9955L3.91636e-07 22ZM83.0002 4.99998C82.3353 4.99998 81.6796 5.00049 81.0328 5.00157L81.0361 7.00157C81.6817 7.0005 82.3363 6.99998 83.0002 6.99998L83.0002 4.99998ZM77.15 5.01565C75.8174 5.02338 74.5245 5.03417 73.2683 5.04845L73.291 7.04832C74.5431 7.03409 75.8323 7.02333 77.1616 7.01562L77.15 5.01565ZM69.3909 5.10619C68.0524 5.13131 66.7572 5.1615 65.5011 5.1974L65.5583 7.19658C66.8071 7.16089 68.0958 7.13085 69.4285 7.10584L69.3909 5.10619ZM61.6029 5.33282C60.2671 5.38822 58.976 5.45184 57.7236 5.52462L57.8396 7.52125C59.08 7.44917 60.36 7.38608 61.6857 7.3311L61.6029 5.33282ZM53.8223 5.79137C52.4898 5.89727 51.1985 6.01622 49.9398 6.14957L50.1506 8.13844C51.3906 8.00706 52.6644 7.8897 53.9807 7.78509L53.8223 5.79137ZM46.0565 6.62115C44.7423 6.80223 43.4564 7.00229 42.1875 7.22312L42.5304 9.19351C43.7754 8.97684 45.0379 8.78038 46.3295 8.60243L46.0565 6.62115ZM38.3439 7.96588C37.0708 8.23662 35.8039 8.53076 34.5308 8.85014L35.0175 10.79C36.2678 10.4764 37.5112 10.1877 38.7599 9.92213L38.3439 7.96588ZM30.7509 9.86569C29.5242 10.2163 28.2815 10.5909 27.0125 10.9911L27.6141 12.8985C28.8673 12.5033 30.0926 12.1339 31.3005 11.7887L30.7509 9.86569ZM23.31 12.2041C22.1119 12.61 20.8844 13.038 19.6199 13.489L20.2917 15.3728C21.5477 14.9248 22.7651 14.5004 23.9519 14.0982L23.31 12.2041ZM15.9766 14.8128C14.7969 15.2485 13.5829 15.7029 12.3294 16.1768L13.0366 18.0476C14.2862 17.5752 15.4954 17.1226 16.6695 16.6889L15.9766 14.8128ZM8.69662 17.5612C7.52754 18.0097 6.32413 18.4739 5.08298 18.9542L5.80475 20.8194C7.04464 20.3396 8.2462 19.8762 9.41304 19.4285L8.69662 17.5612Z" fill="#C8A35F"/>
</svg>
