<svg width="158" height="108" viewBox="0 0 158 108" fill="none" xmlns="http://www.w3.org/2000/svg">
<path d="M155.167 10.6188C157.718 9.14605 158.592 5.88424 157.119 3.33335C155.646 0.782453 152.384 -0.0915549 149.833 1.38121C147.282 2.85397 146.408 6.11578 147.881 8.66668C149.354 11.2176 152.616 12.0916 155.167 10.6188ZM0 108L10.8306 103.996L1.94792 96.6185L0 108ZM4.68889 103.93C5.56461 102.882 6.439 101.839 7.31263 100.801L5.78218 99.5132C4.90696 100.554 4.03114 101.599 3.15419 102.648L4.68889 103.93ZM9.94718 97.6819C10.8292 96.6422 11.7111 95.6076 12.5933 94.5782L11.0747 93.2767C10.1901 94.3088 9.30613 95.346 8.42209 96.388L9.94718 97.6819ZM15.2543 91.4912C16.1481 90.4607 17.0427 89.4358 17.9389 88.4165L16.4369 87.0959C15.5375 88.1188 14.6399 89.1471 13.7434 90.1808L15.2543 91.4912ZM20.6431 85.3642C21.5497 84.3489 22.4586 83.3395 23.3701 82.3363L21.8898 80.9913C20.9742 81.999 20.0616 83.0127 19.1513 84.0321L20.6431 85.3642ZM26.1237 79.334C27.0486 78.3354 27.9768 77.3432 28.909 76.3576L27.456 74.9833C26.5187 75.9742 25.5857 76.9715 24.6564 77.975L26.1237 79.334ZM31.7248 73.4138C32.6697 72.4373 33.6192 71.4676 34.574 70.5049L33.1539 69.0965C32.1932 70.0653 31.2379 71.0408 30.2875 72.023L31.7248 73.4138ZM37.4596 67.633C38.4284 66.6816 39.403 65.7374 40.3843 64.8006L39.0031 63.3541C38.0149 64.2976 37.0335 65.2483 36.0583 66.206L37.4596 67.633ZM43.3484 62.0121C44.343 61.0904 45.3448 60.1763 46.3544 59.2698L45.0182 57.7816C44.0006 58.6953 42.9911 59.6165 41.989 60.5451L43.3484 62.0121ZM49.4046 56.5758C50.4269 55.6878 51.4576 54.8077 52.4973 53.9355L51.2119 52.4033C50.1633 53.2829 49.1239 54.1705 48.0931 55.0658L49.4046 56.5758ZM55.6352 51.35C56.6872 50.4989 57.7486 49.6559 58.8202 48.8211L57.591 47.2434C56.5096 48.0858 55.4386 48.9365 54.3773 49.7951L55.6352 51.35ZM62.0538 46.3503C63.1344 45.5407 64.2255 44.7393 65.3277 43.9463L64.1596 42.3228C63.0468 43.1235 61.9454 43.9325 60.8546 44.7497L62.0538 46.3503ZM68.6489 41.6055C69.7606 40.8383 70.8837 40.0794 72.0187 39.3289L70.9157 37.6606C69.7695 38.4185 68.6354 39.1848 67.5129 39.9595L68.6489 41.6055ZM75.4349 37.1192C76.5731 36.3991 77.7234 35.6872 78.8864 34.9839L77.8513 33.2725C76.6768 33.9829 75.5151 34.7018 74.3656 35.429L75.4349 37.1192ZM82.3845 32.9161C83.5535 32.2409 84.7353 31.5739 85.9304 30.9155L84.9653 29.1637C83.7584 29.8287 82.5648 30.5023 81.3842 31.1842L82.3845 32.9161ZM89.5062 28.9917C90.6974 28.3661 91.9017 27.7487 93.1196 27.1395L92.2249 25.3508C90.9952 25.9658 89.7791 26.5893 88.5762 27.2211L89.5062 28.9917ZM96.7787 25.3541C97.9941 24.7757 99.223 24.2053 100.466 23.6431L99.6413 21.8209C98.3869 22.3884 97.1463 22.9642 95.9192 23.5482L96.7787 25.3541ZM104.179 22.0052C105.418 21.4726 106.671 20.948 107.937 20.4313L107.182 18.5794C105.904 19.1008 104.64 19.6303 103.39 20.1677L104.179 22.0052ZM111.714 18.9306C112.967 18.4457 114.233 17.9685 115.514 17.4989L114.825 15.6212C113.534 16.0948 112.256 16.5762 110.992 17.0654L111.714 18.9306ZM119.359 16.1265C120.626 15.6866 121.906 15.2541 123.2 14.8289L122.575 12.9289C121.271 13.3575 119.98 13.7936 118.703 14.2371L119.359 16.1265ZM127.076 13.5902C128.364 13.1902 129.665 12.7973 130.98 12.4116L130.417 10.4925C129.092 10.8811 127.781 11.277 126.483 11.6802L127.076 13.5902ZM134.88 11.2997C136.184 10.9389 137.5 10.5849 138.83 10.2379L138.325 8.30269C136.986 8.65217 135.66 9.00872 134.347 9.37223L134.88 11.2997ZM142.757 9.24335C144.067 8.92139 145.39 8.60601 146.726 8.29727L146.276 6.34862C144.931 6.65942 143.599 6.97695 142.28 7.30113L142.757 9.24335ZM150.693 7.40851C151.361 7.26359 152.032 7.1203 152.706 6.97863L152.294 5.02139C151.616 5.16397 150.941 5.30818 150.269 5.45402L150.693 7.40851Z" fill="#C8A35F"/>
</svg>
