<svg width="112" height="57" viewBox="0 0 112 57" fill="none" xmlns="http://www.w3.org/2000/svg">
<path id="Vector 2" d="M104.24 56.1701C106.941 57.3453 110.084 56.1084 111.259 53.4075C112.434 50.7065 111.197 47.5643 108.496 46.3892C105.795 45.214 102.653 46.4509 101.478 49.1519C100.303 51.8528 101.539 54.995 104.24 56.1701ZM0.210122 4.517L9.15456 11.8198L11.0067 0.422275L0.210122 4.517ZM106.987 50.4938C106.48 50.0955 105.966 49.6959 105.444 49.2954L104.227 50.8826C104.743 51.278 105.25 51.6724 105.75 52.0655L106.987 50.4938ZM102.293 46.9379C101.256 46.1809 100.194 45.4215 99.1053 44.6608L97.9595 46.3001C99.0367 47.053 100.088 47.8043 101.113 48.5529L102.293 46.9379ZM95.8711 42.4465C94.8 41.728 93.7076 41.0092 92.5949 40.2912L91.5104 41.9717C92.6133 42.6834 93.6959 43.3956 94.7569 44.1074L95.8711 42.4465ZM89.2814 38.1925C88.1828 37.5094 87.0668 36.8278 85.9343 36.1484L84.9055 37.8635C86.029 38.5374 87.1359 39.2135 88.2253 39.8909L89.2814 38.1925ZM82.5575 34.1579C81.4374 33.5091 80.3028 32.863 79.1547 32.2205L78.178 33.9658C79.3175 34.6035 80.4435 35.2447 81.555 35.8885L82.5575 34.1579ZM75.7235 30.3328C74.5825 29.7157 73.4295 29.1026 72.2654 28.4941L71.339 30.2666C72.4948 30.8707 73.6394 31.4794 74.7721 32.092L75.7235 30.3328ZM68.7815 26.7043C67.6217 26.1186 66.4519 25.538 65.273 24.9631L64.3964 26.7608C65.567 27.3316 66.7285 27.9081 67.88 28.4896L68.7815 26.7043ZM61.7404 23.2708C60.5632 22.7169 59.3777 22.169 58.1847 21.6277L57.3584 23.4491C58.5429 23.9864 59.72 24.5304 60.8889 25.0805L61.7404 23.2708ZM54.6061 20.0344C53.4123 19.5129 52.2118 18.9985 51.0053 18.4917L50.2308 20.3356C51.4284 20.8387 52.6202 21.3494 53.8055 21.8672L54.6061 20.0344ZM47.3825 17.0006C46.1728 16.5128 44.9578 16.0332 43.7382 15.5623L43.0177 17.428C44.228 17.8953 45.4339 18.3714 46.6347 18.8555L47.3825 17.0006ZM40.0725 14.1783C38.8472 13.7262 37.6181 13.2834 36.3857 12.8503L35.7226 14.7371C36.9451 15.1667 38.1645 15.6061 39.3802 16.0546L40.0725 14.1783ZM32.6781 11.5802C31.4377 11.1664 30.1947 10.7629 28.9498 10.3704L28.3483 12.2778C29.5825 12.667 30.815 13.067 32.0452 13.4774L32.6781 11.5802ZM25.2011 9.22326C23.9459 8.85095 22.6893 8.49024 21.4323 8.1417L20.8979 10.069C22.1433 10.4143 23.3884 10.7717 24.6324 11.1407L25.2011 9.22326ZM17.6435 7.1289C16.3737 6.80222 15.1041 6.48853 13.8352 6.18842L13.3749 8.13472C14.6308 8.43176 15.8878 8.74232 17.1452 9.06582L17.6435 7.1289ZM10.0079 5.32426C8.72415 5.04837 7.44196 4.78704 6.16205 4.54088L5.78433 6.50489C7.0497 6.74825 8.31772 7.00669 9.58766 7.27961L10.0079 5.32426Z" fill="#C8A35F"/>
</svg>
