<svg width="114" height="43" viewBox="0 0 114 43" fill="none" xmlns="http://www.w3.org/2000/svg">
<path d="M107.277 0.697873C110.205 0.379543 112.837 2.49531 113.155 5.42358C113.473 8.35185 111.358 10.9837 108.429 11.3021C105.501 11.6204 102.869 9.50462 102.551 6.57636C102.233 3.64809 104.348 1.0162 107.277 0.697873ZM0.0536278 36.8307L9.69768 30.4805L10.3751 42.0076L0.0536278 36.8307ZM108.421 6.82337C107.865 7.20629 107.302 7.58688 106.731 7.96506L105.626 6.29805C106.187 5.92644 106.74 5.55259 107.286 5.17657L108.421 6.82337ZM103.287 10.1631C102.144 10.8662 100.973 11.5601 99.7759 12.2443L98.7834 10.5079C99.9624 9.83401 101.115 9.15096 102.24 8.45922L103.287 10.1631ZM96.1989 14.2177C95.0148 14.8483 93.8071 15.4699 92.5761 16.0819L91.6857 14.291C92.9003 13.6871 94.0914 13.0742 95.2587 12.4525L96.1989 14.2177ZM88.8992 17.849C87.6799 18.4155 86.4395 18.9729 85.1781 19.521L84.3811 17.6867C85.6274 17.1452 86.8526 16.5945 88.0566 16.0352L88.8992 17.849ZM81.4257 21.0985C80.1812 21.6045 78.9176 22.1018 77.6353 22.5898L76.9239 20.7206C78.1924 20.2378 79.4419 19.7461 80.6724 19.2458L81.4257 21.0985ZM73.8112 23.9979C72.5437 24.4493 71.259 24.892 69.9573 25.3256L69.3252 23.4281C70.6141 22.9988 71.8858 22.5606 73.1402 22.1138L73.8112 23.9979ZM66.0861 26.5727C64.8032 26.9722 63.5047 27.3631 62.1907 27.7451L61.6323 25.8247C62.9343 25.4461 64.2207 25.0588 65.4915 24.6631L66.0861 26.5727ZM58.2737 28.8453C56.9759 29.1972 55.6637 29.5406 54.3374 29.8754L53.848 27.9362C55.163 27.6043 56.4639 27.2638 57.7503 26.915L58.2737 28.8453ZM50.3841 30.8375C49.0744 31.1446 47.7515 31.4434 46.4156 31.7336L45.991 29.7792C47.3163 29.4912 48.6285 29.1949 49.9275 28.8903L50.3841 30.8375ZM42.4337 32.5656C41.1145 32.8304 39.7832 33.087 38.4398 33.3352L38.0764 31.3685C39.4098 31.1221 40.731 30.8675 42.0401 30.6047L42.4337 32.5656ZM34.4355 34.0443C33.1088 34.269 31.7709 34.4857 30.4218 34.6943L30.1163 32.7177C31.4559 32.5107 32.7843 32.2955 34.1014 32.0724L34.4355 34.0443ZM26.3999 35.2867C25.0673 35.4735 23.7243 35.6523 22.3708 35.8231L22.1205 33.8389C23.4649 33.6692 24.7989 33.4916 26.1223 33.3061L26.3999 35.2867ZM18.3354 36.3048C16.9981 36.4554 15.6511 36.5983 14.2944 36.7331L14.0966 34.7429C15.4446 34.6089 16.783 34.467 18.1116 34.3174L18.3354 36.3048ZM10.2486 37.1093C8.90765 37.2253 7.5576 37.3337 6.19851 37.4344L6.05085 35.4398C7.4017 35.3398 8.74347 35.2321 10.0761 35.1167L10.2486 37.1093Z" fill="#C8A35F"/>
</svg>
