<svg width="31" height="35" viewBox="0 0 31 35" fill="none" xmlns="http://www.w3.org/2000/svg">
<g id="Frame 10">
<g id="Vector">
<path d="M31 19.5C31 28.0604 24.0604 35 15.5 35C6.93959 35 0 28.0604 0 19.5C0 10.9396 6.93959 4 15.5 4C24.0604 4 31 10.9396 31 19.5Z" fill="#C8A35F"/>
<path fill-rule="evenodd" clip-rule="evenodd" d="M23.6505 12.7702C24.3408 13.2764 24.49 14.2464 23.9838 14.9367L16.5272 25.1048C15.4036 26.6369 13.1788 26.8071 11.8353 25.4636L8.46285 22.0911C7.85754 21.4858 7.85754 20.5044 8.46285 19.8991C9.06816 19.2938 10.0496 19.2938 10.6549 19.8991L14.0274 23.2716L21.4839 13.1035C21.9902 12.4132 22.9602 12.264 23.6505 12.7702Z" fill="#F6F6F6"/>
</g>
</g>
</svg>
