<svg width="58" height="58" viewBox="0 0 58 58" fill="none" xmlns="http://www.w3.org/2000/svg">
<g id="Group">
<path id="Vector" d="M55.5819 41.0455C55.0284 40.7486 54.4189 40.571 53.7926 40.524C53.1663 40.4771 52.5371 40.5618 51.9455 40.7728L39.8637 45.1091C40.1015 44.3834 40.1495 43.6088 40.0031 42.8593C39.8567 42.1098 39.5208 41.4102 39.0273 40.8273C38.6103 40.3352 38.0907 39.9403 37.505 39.6702C36.9192 39.4001 36.2815 39.2613 35.6364 39.2637H29.0183C27.4819 39.2637 25.991 38.7273 24.7273 37.7182C21.8455 35.4182 15.991 32.3818 8.31825 36.6909V35.1637C8.31825 34.6573 8.11712 34.1718 7.75909 33.8137C7.40107 33.4557 6.91548 33.2546 6.40916 33.2546H1.93643C1.43011 33.2546 0.944528 33.4557 0.586504 33.8137C0.228479 34.1718 0.0273438 34.6573 0.0273438 35.1637V54.2909C0.0273438 55.3455 0.881889 56.2 1.93643 56.2H6.40916C6.91548 56.2 7.40107 55.9989 7.75909 55.6409C8.11712 55.2828 8.31825 54.7973 8.31825 54.2909V53.3637C9.7728 53.3455 13.4728 53.5546 18.7728 55.6364C22.1728 56.9637 25.7092 57.6364 29.2364 57.6364C31.191 57.6364 33.1455 57.4273 35.0637 57.0091C40.3546 55.8546 48.2546 53.5091 55.8455 48.8637C56.3496 48.5495 56.7867 48.1388 57.1315 47.6552C57.4763 47.1715 57.722 46.6245 57.8546 46.0455C58.3183 44.0728 57.391 42.0182 55.5819 41.0455ZM6.72734 54.2819C6.72734 54.4546 6.58189 54.6 6.40916 54.6H1.93643C1.76371 54.6 1.61825 54.4546 1.61825 54.2819V35.1546C1.61825 34.9819 1.76371 34.8364 1.93643 34.8364H6.40916C6.58189 34.8364 6.72734 34.9819 6.72734 35.1546V54.2819ZM56.3092 45.6818C56.1273 46.4455 55.6637 47.1091 55.0183 47.5C47.6092 52.0364 39.891 54.3273 34.7273 55.4546C29.6637 56.5546 24.3455 56.1091 19.3546 54.1546C14.0364 52.0728 10.2637 51.7728 8.50916 51.7728H8.30916V38.5091C15.5728 34 21.0728 36.8364 23.7273 38.9546C25.2546 40.1819 27.1364 40.8546 29.0092 40.8546H35.6273C36.4637 40.8546 37.2637 41.2182 37.8092 41.8637C38.3637 42.5091 38.591 43.3455 38.4455 44.2C38.3183 45 37.8092 45.6819 37.1092 46.1091C37.0637 46.1273 37.0092 46.1546 36.9728 46.1909C36.5183 46.4364 35.991 46.5728 35.4364 46.5728H26.1364C25.7001 46.5728 25.3364 46.9273 25.3364 47.3728C25.3364 47.8182 25.691 48.1728 26.1364 48.1728H35.4455C36.291 48.1728 37.091 47.9546 37.7819 47.5728L52.491 42.3C53.2546 42.0273 54.1183 42.0819 54.8637 42.4909C56.0092 43.0819 56.6092 44.4091 56.3092 45.6818Z" fill="#C8A35F"/>
<path id="Vector_2" d="M18.4365 21.4637C19.0455 22.0364 19.6728 22.6364 19.8365 23.1546C20.0183 23.7182 19.8546 24.5909 19.7001 25.4455C19.4637 26.7637 19.2092 28.1273 19.9728 29.1637C20.7365 30.2091 22.1183 30.4 23.4546 30.5818C24.3001 30.7 25.1819 30.8182 25.6455 31.1546C26.1001 31.4818 26.4819 32.2818 26.8455 33.0455C27.4001 34.2182 28.0365 35.5364 29.2819 35.9455C29.5365 36.0273 29.791 36.0637 30.0365 36.0637C30.9819 36.0637 31.9365 35.5546 32.8546 35.0546C33.6274 34.6364 34.4274 34.2091 35.0365 34.2091C35.6455 34.2091 36.4455 34.6364 37.2183 35.0546C38.391 35.6818 39.591 36.3364 40.8001 35.9455C42.0546 35.5364 42.6819 34.2182 43.2365 33.0455C43.6001 32.2818 43.9819 31.4909 44.4365 31.1546C44.9001 30.8182 45.7819 30.7 46.6274 30.5818C47.9637 30.4 49.3455 30.2182 50.1092 29.1728C50.8637 28.1364 50.6183 26.7728 50.3819 25.4546C50.2274 24.6 50.0728 23.7273 50.2455 23.1637C50.4092 22.6455 51.0455 22.0546 51.6455 21.4728C52.591 20.5728 53.6637 19.5546 53.6637 18.2182C53.6637 16.8818 52.591 15.8637 51.6455 14.9637C51.0365 14.3909 50.4092 13.7909 50.2455 13.2728C50.0637 12.7091 50.2274 11.8364 50.3819 10.9818C50.6183 9.66366 50.8728 8.30003 50.1092 7.26367C49.3455 6.21821 47.9637 6.0273 46.6274 5.84548C45.7819 5.7273 44.9001 5.60912 44.4365 5.27276C43.9819 4.94548 43.6001 4.14548 43.2365 3.38185C42.6819 2.20912 42.0455 0.890938 40.8001 0.481847C39.6001 0.0909379 38.391 0.745483 37.2183 1.37276C36.4455 1.79094 35.6455 2.21821 35.0365 2.21821C34.4274 2.21821 33.6274 1.79094 32.8546 1.37276C31.6819 0.745483 30.4728 0.0909379 29.2728 0.481847C28.0183 0.890938 27.391 2.20912 26.8365 3.38185C26.4728 4.14548 26.091 4.93639 25.6365 5.27276C25.1728 5.60912 24.291 5.7273 23.4455 5.84548C22.1092 6.0273 20.7274 6.20912 19.9637 7.26367C19.2092 8.30003 19.4546 9.66366 19.691 10.9818C19.8455 11.8364 20.0001 12.7091 19.8274 13.2728C19.6546 13.7909 19.0274 14.3818 18.4274 14.9637C17.4819 15.8637 16.4092 16.8818 16.4092 18.2182C16.4092 19.5455 17.491 20.5637 18.4365 21.4637ZM19.5274 16.1091C20.2819 15.4 21.0546 14.6637 21.3455 13.7546C21.6546 12.8182 21.4546 11.7364 21.2637 10.6909C21.0819 9.70003 20.9001 8.67276 21.2546 8.19094C21.6183 7.69094 22.6546 7.55457 23.6637 7.41821C24.7092 7.28185 25.791 7.13639 26.5819 6.55457C27.3637 5.99094 27.8274 5.00912 28.2819 4.06367C28.7183 3.14548 29.1819 2.19094 29.7819 1.99094C29.8637 1.96367 29.9546 1.95457 30.0455 1.95457C30.6001 1.95457 31.3728 2.37276 32.1183 2.77276C33.0637 3.28185 34.0455 3.80912 35.0546 3.80912C36.0637 3.80912 37.0455 3.28185 37.991 2.77276C38.8637 2.30003 39.7637 1.81821 40.3274 2.00003C40.9274 2.19094 41.3819 3.14548 41.8274 4.07276C42.2819 5.01821 42.7455 5.99094 43.5274 6.56366C44.3183 7.13639 45.4001 7.28185 46.4455 7.4273C47.4546 7.56367 48.491 7.70003 48.8546 8.20003C49.2092 8.69094 49.0274 9.70912 48.8455 10.7C48.6546 11.7455 48.4637 12.8273 48.7637 13.7637C49.0546 14.6637 49.8365 15.4 50.5819 16.1182C51.3274 16.8273 52.1092 17.5637 52.1092 18.2182C52.1092 18.8728 51.3365 19.6091 50.5819 20.3182C49.8274 21.0273 49.0546 21.7637 48.7637 22.6728C48.4546 23.6091 48.6546 24.6909 48.8455 25.7364C49.0274 26.7273 49.2092 27.7455 48.8546 28.2364C48.491 28.7364 47.4546 28.8728 46.4455 29.0091C45.4001 29.1455 44.3183 29.2909 43.5274 29.8728C42.7455 30.4364 42.2819 31.4182 41.8274 32.3637C41.391 33.2909 40.9274 34.2364 40.3274 34.4364C39.7728 34.6182 38.8637 34.1273 37.991 33.6637C37.0455 33.1546 36.0637 32.6273 35.0546 32.6273C34.0455 32.6273 33.0637 33.1546 32.1183 33.6637C31.2455 34.1364 30.3455 34.6182 29.7819 34.4364C29.1819 34.2455 28.7274 33.2909 28.2819 32.3637C27.8274 31.4182 27.3637 30.4455 26.5819 29.8728C25.791 29.3 24.7092 29.1546 23.6637 29.0091C22.6546 28.8728 21.6183 28.7364 21.2546 28.2364C20.9001 27.7455 21.0819 26.7273 21.2637 25.7364C21.4546 24.6909 21.6455 23.6091 21.3455 22.6728C21.0546 21.7728 20.2728 21.0364 19.5274 20.3182C18.7819 19.6091 18.0001 18.8728 18.0001 18.2182C18.0001 17.5546 18.7819 16.8182 19.5274 16.1091Z" fill="#C8A35F"/>
<path id="Vector_3" d="M35.0454 29.3273C41.1727 29.3273 46.1636 24.3364 46.1636 18.2091C46.1636 12.0819 41.1818 7.09094 35.0454 7.09094C28.9091 7.09094 23.9272 12.0819 23.9272 18.2091C23.9272 24.3364 28.9182 29.3273 35.0454 29.3273ZM35.0454 8.68185C40.3 8.68185 44.5727 12.9546 44.5727 18.2091C44.5727 23.4637 40.3 27.7364 35.0454 27.7364C29.7909 27.7364 25.5182 23.4637 25.5182 18.2091C25.5182 12.9546 29.7909 8.68185 35.0454 8.68185Z" fill="#C8A35F"/>
<path id="Vector_4" d="M31.3273 23.1546C31.8182 23.6455 32.4819 23.9182 33.1728 23.9182C33.8637 23.9182 34.5273 23.6455 35.0182 23.1546L41.2091 16.9636C41.7 16.4727 41.9728 15.8091 41.9728 15.1182C41.9728 14.4273 41.7 13.7636 41.2091 13.2727C40.7177 12.7837 40.0525 12.5091 39.3591 12.5091C38.6658 12.5091 38.0006 12.7837 37.5091 13.2727L33.1728 17.6091L32.5728 17.0091C32.0813 16.52 31.4161 16.2455 30.7228 16.2455C30.0294 16.2455 29.3643 16.52 28.8728 17.0091C28.3837 17.5006 28.1091 18.1657 28.1091 18.8591C28.1091 19.5525 28.3837 20.2176 28.8728 20.7091L31.3273 23.1546ZM30.0091 18.1364C30.2091 17.9364 30.4728 17.8364 30.7364 17.8364C31 17.8364 31.2637 17.9364 31.4637 18.1364L32.6273 19.2909C32.9364 19.6 33.4455 19.6 33.7546 19.2909L38.6546 14.3909C39.0546 13.9909 39.7 13.9909 40.1 14.3909C40.291 14.5818 40.4 14.8364 40.4 15.1091C40.4 15.3818 40.291 15.6364 40.1 15.8364L33.9091 22.0273C33.5273 22.4091 32.8455 22.4091 32.4637 22.0273L30.0182 19.5818C29.6091 19.1818 29.6091 18.5364 30.0091 18.1364Z" fill="#C8A35F"/>
</g>
</svg>
