<svg width="40" height="40" viewBox="0 0 40 40" fill="none" xmlns="http://www.w3.org/2000/svg">
<g id="quotes">
<path id="&#226;&#128;&#156;" d="M10.04 31.73C8.18 31.73 6.89 31.37 6.17 30.65C5.45 29.87 5.06 28.52 5 26.6V21.38C5 18.86 5.18 16.67 5.54 14.81C5.96 12.89 6.53 11.15 7.25 9.59C7.97 8.03 8.81 6.5 9.77 5L15.35 6.8C14.81 8.66 14.45 10.49 14.27 12.29C14.09 14.03 13.97 15.86 13.91 17.78C16.67 17.78 18.08 19.31 18.14 22.37L17.96 26.6C17.9 28.52 17.51 29.87 16.79 30.65C16.07 31.37 14.81 31.73 13.01 31.73H10.04ZM27.05 31.73C25.13 31.73 23.81 31.37 23.09 30.65C22.43 29.87 22.07 28.52 22.01 26.6V21.38C22.01 18.86 22.19 16.67 22.55 14.81C22.97 12.89 23.51 11.15 24.17 9.59C24.89 8.03 25.76 6.5 26.78 5L32.27 6.8C31.73 8.66 31.37 10.49 31.19 12.29C31.07 14.03 30.98 15.86 30.92 17.78C33.68 17.78 35.06 19.31 35.06 22.37L34.97 26.6C34.91 28.52 34.52 29.87 33.8 30.65C33.08 31.37 31.79 31.73 29.93 31.73H27.05Z" fill="#C8A35F"/>
</g>
</svg>
